<?xml version="1.0" encoding="UTF-8"?>
<svg id="Layer_1" data-name="Layer 1" xmlns="http://www.w3.org/2000/svg" viewBox="0 0 47 48">
  <path d="M12.74,18.17c.26-.02.51.1.64.33l.05.12h0s.03.13.03.13c.03.3-.14.6-.44.69h0c-1.82.6-3.47,1.46-4.86,2.55h0c-2.98,2.35-4.98,5.79-5.92,10.28l-.09.44c-.08.41.04.82.3,1.12l.12.12h0s.3.25.3.25c1.57,1.23,3.76,1.91,6.2,1.88h.14c.3.07.53.33.53.65,0,.32-.22.59-.51.65h-.13s-.03.01-.03.01l-.03.03h-.08c-2.87,0-5.44-.86-7.26-2.46l-.13-.12c-.61-.61-.89-1.5-.71-2.37h0c.96-5.01,3.13-8.88,6.48-11.51l.29-.22c1.46-1.09,3.12-1.94,4.98-2.56h0s.13-.03.13-.03Z" style="fill: #6444db; stroke: #6444db; stroke-width: .4px;"/>
  <path d="M33.01,27.15c.34-.17.73,0,.87.31h0c.89,1.88,1.42,3.81,1.6,5.75l.03.4c.28,4.12-1.04,8.23-3.91,12.24h0c-.5.69-1.29,1.1-2.13,1.1h-.48l.04-.04c-.76-.09-1.52-.29-2.28-.59l-.35-.15c-.34-.15-.48-.54-.33-.87.13-.29.45-.44.74-.38l.13.04h0s.31.13.31.13c.71.29,1.42.46,2.13.53h0c.47.04.93-.17,1.18-.54h0s.26-.37.26-.37c2.52-3.65,3.66-7.35,3.4-11.01l-.03-.37c-.17-1.78-.67-3.57-1.49-5.31h0c-.14-.33,0-.72.31-.87h0Z" style="fill: #6444db; stroke: #6444db; stroke-width: .4px;"/>
  <path d="M22.44,42.29c.27-.25.68-.23.93.04l.28.29c.19.19.38.38.58.55l.3.26h0s.09.1.09.1c.19.24.19.58,0,.83-.13.18-.33.24-.5.24h-.05l-.04-.02c-.09,0-.18-.03-.26-.07l-.1-.07c-.44-.37-.88-.78-1.27-1.22h0c-.25-.27-.22-.68.04-.93Z" style="fill: #6444db; stroke: #6444db; stroke-width: .4px;"/>
  <path d="M25.2,7.99c1.71-.52,3.27-.61,4.44-.1l.22.1c1.08.56,2.01,1.71,2.76,3.21.8,1.61,1.39,3.67,1.73,5.93.65,4.38.33,9.58-1.42,13.94l-.17.42c-1.48,3.45-3.99,6.18-7.06,7.64h0c-1.49.72-3.05,1.11-4.62,1.18l.03.03h-.48c-1.52,0-3.05-.31-4.49-.94h0c-3.07-1.34-5.34-3.88-6.39-7.17h0c-1.04-3.26-.79-6.95.7-10.4,1.9-4.44,5.56-8.41,9.3-11.02,1.87-1.31,3.76-2.28,5.48-2.81ZM27.84,8.87c-1.76,0-4.29.98-6.92,2.75l-.53.37c-3.89,2.76-7.15,6.63-8.75,10.36h0c-2.83,6.6-.64,13.39,5.01,15.84,5.66,2.45,12.08-.61,14.91-7.21l.15-.35c1.39-3.46,1.92-7.95,1.46-12.27l-.11-.89c-.31-2.18-.85-4.09-1.54-5.55-.7-1.47-1.52-2.45-2.38-2.82h0c-.35-.16-.78-.23-1.28-.23h-.01Z" style="fill: #6444db; stroke: #6444db; stroke-width: .4px;"/>
  <path d="M17.18,24.05c1.11-2.59,4.1-3.78,6.68-2.66,2.5,1.08,3.68,3.94,2.75,6.46l-.1.24c-.82,1.93-2.71,3.08-4.67,3.08-.67,0-1.35-.14-2.01-.42h0c-2.57-1.11-3.76-4.12-2.65-6.71ZM21.85,22.27c-1.37,0-2.68.75-3.34,2.03l-.12.26c-.82,1.92.06,4.15,1.97,4.98h0c1.91.82,4.12-.05,4.96-1.98.4-.93.41-1.96.04-2.9h0c-.37-.95-1.08-1.67-2.01-2.09l-.18-.07c-.43-.16-.87-.24-1.31-.24Z" style="fill: #6444db; stroke: #6444db; stroke-width: .4px;"/>
  <path d="M22.41,24.34l.12.03h.01s0,0,0,0c.38.17.7.46.89.83l.08.16h0s.06.17.06.17c.12.4.09.82-.07,1.22h0c-.06.15-.18.26-.31.33l.05.1h-.33s-.01,0-.02,0c-.02,0-.04,0-.06,0-.04,0-.11-.02-.17-.05h0s0,0-.01,0c0,0,0,0,0,0h0c-.31-.15-.47-.53-.33-.86l.03-.09c.02-.1,0-.19-.03-.29-.05-.13-.15-.23-.27-.28h0c-.33-.15-.49-.54-.35-.87.13-.29.44-.44.73-.39Z" style="fill: #6444db; stroke: #6444db; stroke-width: .4px;"/>
  <path d="M15.02,7.3c.37,0,.66.29.66.66v2.33c0,.37-.29.66-.66.66-.37,0-.66-.29-.66-.66v-2.33c0-.37.29-.66.66-.66Z" style="fill: #6444db; stroke: #6444db; stroke-width: .4px;"/>
  <path d="M15.02.8c.37,0,.66.29.66.66v2.33c0,.37-.29.66-.66.66-.37,0-.66-.29-.66-.66V1.46c0-.37.29-.66.66-.66Z" style="fill: #6444db; stroke: #6444db; stroke-width: .4px;"/>
  <path d="M19.42,5.21h.13c.3.07.53.34.53.66,0,.37-.29.66-.66.66h-2.33c-.37,0-.66-.29-.66-.66,0-.37.29-.66.66-.66h2.33Z" style="fill: #6444db; stroke: #6444db; stroke-width: .4px;"/>
  <path d="M12.95,5.21h.13c.3.07.53.34.53.66,0,.37-.29.66-.66.66h-2.33c-.37,0-.66-.29-.66-.66,0-.37.29-.66.66-.66h2.33Z" style="fill: #6444db; stroke: #6444db; stroke-width: .4px;"/>
  <path d="M42.82,23.33c.32-.13.71,0,.84.36l.22.56c.07.19.15.38.21.58l.26.77c1.24,3.91,1.7,8.48,1.33,13.27-.02.36-.32.6-.66.6h-.04c-.35-.02-.64-.35-.6-.71l.06-.92c.26-4.59-.29-8.93-1.58-12.58h0c-.13-.36-.27-.73-.41-1.07h0c-.14-.32,0-.72.35-.85h0s0,0,0,0c0,0,0,0,0,0h0Z" style="fill: #6444db; stroke: #6444db; stroke-width: .4px;"/>
  <path d="M36.8,15.53l.12.05h0s.47.27.47.27c1.09.66,2.11,1.51,3.03,2.55h0c.25.27.22.68-.04.93h0c-.12.11-.28.17-.43.17-.2,0-.36-.09-.49-.22h0c-.83-.94-1.75-1.71-2.73-2.3l-.42-.24c-.31-.17-.44-.58-.27-.89.15-.28.48-.4.77-.32Z" style="fill: #6444db; stroke: #6444db; stroke-width: .4px;"/>
  <path d="M39.32,29.85c.34-.06.7.16.76.52h0c.59,3.25.62,6.91.09,10.58h0c-.01.11-.03.23-.06.36h0c-.05.25-.22.44-.44.52v.05h-.31c-.35-.06-.59-.39-.54-.76h0c.01-.09.03-.21.06-.33.51-3.55.48-7.06-.09-10.17h0c-.06-.35.16-.7.52-.77Z" style="fill: #6444db; stroke: #6444db; stroke-width: .4px;"/>
  <path d="M36.61,23.38c.31-.21.71-.12.91.19.58.88,1.11,1.91,1.53,3.05l.03.13c.05.3-.11.61-.41.72h-.01s-.01,0-.01,0c-.04.01-.12.04-.21.04h-.01c-.24,0-.46-.13-.57-.34l-.04-.09c-.4-1.04-.87-1.99-1.39-2.78h0c-.21-.31-.12-.71.19-.91Z" style="fill: #6444db; stroke: #6444db; stroke-width: .4px;"/>
</svg>