<?xml version="1.0" encoding="UTF-8"?>
<svg id="Layer_1" data-name="Layer 1" xmlns="http://www.w3.org/2000/svg" viewBox="0 0 46 47">
  <path d="M34.52,39.1c-.13,0-.27-.03-.39-.1-.19-.1-.33-.27-.39-.49-.06-.22-.04-.43.06-.62.07-.14.14-.29.22-.43,1.52-3.21,1.71-6.82.53-10.15-1.18-3.34-3.6-6.03-6.8-7.56-1.8-.86-3.71-1.29-5.7-1.29-5.11,0-9.82,2.98-12.02,7.56-.07.14-.13.29-.2.45-.13.3-.42.5-.76.5-.1,0-.22-.01-.32-.06-.42-.17-.62-.65-.45-1.06.07-.17.14-.35.23-.52,2.46-5.16,7.77-8.5,13.49-8.5,2.23,0,4.39.49,6.4,1.45,3.6,1.71,6.31,4.73,7.64,8.49,1.34,3.75,1.12,7.81-.6,11.4-.09.17-.17.35-.26.5-.14.26-.42.43-.72.43h.04Z" style="fill: #2c65f4;"/>
  <path d="M22.05,17.17c2.1,0,4.23.46,6.24,1.42,3.51,1.67,6.16,4.62,7.46,8.28,1.29,3.67,1.09,7.62-.59,11.13-.09.17-.16.33-.24.49-.09.16-.24.24-.4.24-.07,0-.14-.01-.22-.06-.22-.11-.3-.4-.19-.62.09-.14.16-.3.23-.45,1.57-3.29,1.77-6.99.55-10.43-1.22-3.44-3.7-6.2-6.99-7.77-1.88-.91-3.88-1.32-5.85-1.32-5.11,0-10.01,2.88-12.34,7.77-.07.16-.14.3-.2.46-.07.17-.24.29-.42.29-.06,0-.12,0-.17-.03-.23-.1-.35-.36-.24-.6.07-.17.14-.33.23-.5,2.5-5.23,7.72-8.3,13.17-8.3M22.05,16.45c-5.87,0-11.29,3.42-13.82,8.7-.09.17-.16.36-.24.53-.24.6.04,1.28.63,1.54.14.06.3.09.45.09.47,0,.91-.29,1.09-.72.06-.14.13-.29.19-.43,2.13-4.47,6.73-7.36,11.69-7.36,1.93,0,3.8.42,5.55,1.27,3.12,1.48,5.47,4.1,6.63,7.35,1.15,3.25.96,6.76-.52,9.88-.07.14-.13.27-.22.42-.3.58-.1,1.28.47,1.6.17.09.36.14.56.14.43,0,.83-.23,1.04-.62.1-.17.19-.35.26-.52,1.75-3.68,1.97-7.84.62-11.68-1.35-3.84-4.14-6.93-7.82-8.69-2.07-.99-4.27-1.48-6.56-1.48h0Z" style="fill: #2c65f4;"/>
  <path d="M22.02,46.65c-2.21,0-4.43-.5-6.41-1.45-4.85-2.32-8.1-7.08-8.47-12.44-.03-.45.32-.83.76-.86.49,0,.83.33.86.76.33,4.77,3.22,9.02,7.54,11.09,1.77.85,3.75,1.29,5.72,1.29,2.75,0,5.39-.83,7.64-2.4.14-.1.3-.14.47-.14.26,0,.52.13.66.35.26.37.17.88-.2,1.14-2.52,1.77-5.49,2.7-8.59,2.7v-.03Z" style="fill: #2c65f4;"/>
  <path d="M7.95,32.24c.23,0,.43.19.45.43.35,4.9,3.31,9.28,7.74,11.39,1.87.89,3.87,1.32,5.87,1.32,2.76,0,5.51-.83,7.85-2.47.09-.06.17-.09.26-.09.14,0,.29.07.37.2.14.2.1.49-.11.63-2.49,1.74-5.42,2.63-8.37,2.63-2.13,0-4.27-.46-6.27-1.41-4.73-2.26-7.9-6.92-8.26-12.15-.01-.24.17-.47.42-.49h.04M7.95,31.52h-.1c-.3.03-.59.17-.79.4-.2.23-.3.55-.29.85.37,5.49,3.7,10.38,8.67,12.74,2.04.98,4.31,1.48,6.57,1.48,3.16,0,6.2-.96,8.79-2.76.53-.37.66-1.11.29-1.64-.22-.32-.58-.5-.96-.5-.24,0-.47.07-.68.22-2.19,1.54-4.76,2.34-7.44,2.34-1.91,0-3.84-.43-5.57-1.25-4.2-2-7.02-6.14-7.33-10.79-.04-.62-.56-1.09-1.16-1.09Z" style="fill: #2c65f4;"/>
  <path d="M40.4,43.28c-1.19,0-2.78-.23-4.67-.68-4.37-1.04-10.21-3.24-16.02-6-5.81-2.78-11.17-5.93-14.74-8.67C1.28,25.08-.17,22.98.53,21.5c.4-.86,1.45-1.29,3.11-1.29,1.21,0,2.78.23,4.67.68.43.1.7.55.6.98-.09.37-.42.63-.79.63h-.04l-.14-.03c-1.8-.43-3.25-.65-4.34-.65s-1.52.23-1.58.36c-.13.29.3,1.64,3.94,4.44,3.47,2.68,8.74,5.77,14.44,8.5,5.71,2.72,11.43,4.86,15.69,5.88,1.8.43,3.25.65,4.34.65s1.52-.23,1.58-.36c.13-.29-.3-1.64-3.94-4.44-.36-.27-.42-.79-.14-1.15.16-.2.39-.32.65-.32.19,0,.36.06.5.17,3.68,2.83,5.13,4.95,4.43,6.43-.4.86-1.45,1.29-3.11,1.29Z" style="fill: #2c65f4;"/>
  <path d="M3.64,20.55c1.18,0,2.72.23,4.6.68.24.06.4.3.35.55-.04.22-.24.35-.45.35h-.1c-1.97-.47-3.41-.65-4.43-.65-1.16,0-1.75.24-1.91.58-.3.62.62,2.23,4.06,4.88,3.49,2.69,8.79,5.81,14.51,8.54,5.72,2.73,11.48,4.89,15.76,5.91,1.97.47,3.41.65,4.43.65,1.16,0,1.75-.24,1.91-.58.3-.62-.62-2.23-4.06-4.88-.2-.16-.23-.45-.09-.65.09-.12.23-.17.36-.17.1,0,.2.03.27.1,3.48,2.69,4.93,4.7,4.31,6-.35.72-1.28,1.09-2.78,1.09-1.18,0-2.72-.23-4.6-.68-4.36-1.04-10.17-3.21-15.95-5.97-5.78-2.76-11.13-5.91-14.67-8.64C1.7,24.97.24,22.95.86,21.66c.35-.72,1.28-1.09,2.78-1.09M3.64,19.83c-1.8,0-2.95.5-3.42,1.5-.81,1.68.63,3.87,4.53,6.87,3.58,2.76,8.97,5.94,14.8,8.72,5.82,2.78,11.69,4.98,16.09,6.03,1.93.46,3.52.69,4.76.69,1.8,0,2.95-.5,3.42-1.5.81-1.68-.63-3.87-4.53-6.87-.2-.16-.46-.24-.72-.24-.37,0-.7.17-.93.46-.19.24-.27.56-.23.86.04.32.2.59.45.78,3.26,2.52,3.74,3.7,3.81,3.98-.13.06-.46.17-1.24.17-1.05,0-2.52-.22-4.26-.63-4.24-1.01-9.94-3.15-15.62-5.85-5.68-2.72-10.93-5.8-14.38-8.46-3.26-2.52-3.74-3.7-3.81-3.98.13-.06.46-.17,1.24-.17,1.05,0,2.52.22,4.26.63.09.01.19.03.27.03.55,0,1.02-.37,1.15-.91.14-.63-.24-1.27-.88-1.41-1.93-.46-3.52-.69-4.76-.69Z" style="fill: #2c65f4;"/>
  <path d="M41.64,23.64c-2.19,0-3.97-1.78-3.97-3.97s1.78-3.97,3.97-3.97,3.97,1.78,3.97,3.97-1.78,3.97-3.97,3.97ZM41.64,17.32c-1.29,0-2.34,1.05-2.34,2.34s1.05,2.34,2.34,2.34,2.34-1.05,2.34-2.34-1.05-2.34-2.34-2.34Z" style="fill: #2c65f4;"/>
  <path d="M41.64,16.05c2,0,3.61,1.63,3.61,3.61s-1.63,3.61-3.61,3.61-3.61-1.63-3.61-3.61,1.63-3.61,3.61-3.61ZM41.64,22.36c1.5,0,2.7-1.21,2.7-2.7s-1.21-2.7-2.7-2.7-2.7,1.21-2.7,2.7,1.21,2.7,2.7,2.7ZM41.64,15.33c-2.39,0-4.33,1.94-4.33,4.33s1.94,4.33,4.33,4.33,4.33-1.94,4.33-4.33-1.94-4.33-4.33-4.33ZM41.64,21.64c-1.09,0-1.98-.89-1.98-1.98s.89-1.98,1.98-1.98,1.98.89,1.98,1.98-.89,1.98-1.98,1.98Z" style="fill: #2c65f4;"/>
  <path d="M23.21,13.86c-3.72,0-6.75-3.03-6.75-6.76S19.5.36,23.21.36s6.75,3.03,6.75,6.75-3.03,6.76-6.75,6.76ZM23.21,1.98c-2.82,0-5.12,2.3-5.12,5.12s2.3,5.12,5.12,5.12,5.12-2.3,5.12-5.12-2.3-5.12-5.12-5.12Z" style="fill: #2c65f4;"/>
  <path d="M23.21.72c3.52,0,6.39,2.86,6.39,6.39s-2.86,6.39-6.39,6.39-6.39-2.86-6.39-6.39S19.69.72,23.21.72ZM23.21,12.58c3.02,0,5.48-2.46,5.48-5.48s-2.46-5.48-5.48-5.48-5.48,2.46-5.48,5.48,2.46,5.48,5.48,5.48ZM23.21,0c-3.93,0-7.1,3.19-7.1,7.1s3.19,7.1,7.1,7.1,7.1-3.19,7.1-7.1S27.12,0,23.21,0ZM23.21,11.86c-2.62,0-4.76-2.13-4.76-4.76s2.13-4.76,4.76-4.76,4.76,2.13,4.76,4.76-2.13,4.76-4.76,4.76Z" style="fill: #2c65f4;"/>
</svg>