<?xml version="1.0" encoding="UTF-8"?>
<svg id="Layer_1" data-name="Layer 1" xmlns="http://www.w3.org/2000/svg" viewBox="0 0 45 49">
  <path d="M23.18,3.4c7.42-.2,13.52,2.88,15.3,7.9l.08.25.19.6c.88,2.94,1.09,5.15,1.19,7.1l.02.25c.11,1.25.53,2.38,1.23,3.28l.51.67c1.12,1.49,1.7,2.55,1.96,3.31.3.88.19,1.4-.02,1.75h0c-.21.36-.57.58-.96.73-.39.15-.83.24-1.22.32h0c-.14.03-.31.07-.46.1-.1.02-.19.05-.25.07-.41,1.95-.3,3.66-.22,5.07l.04.6c.03.59.05,1.14,0,1.63-.06.58-.22,1.09-.56,1.52l-.16.18s-.03.03-.04.03c0,0-.02.01-.02.02,0,0,0,0,0,0h0s-.01.01-.01.01c-1.21.87-2.78,1.29-4.67,1.29h-.32l.02-.03c-.8-.02-1.65-.11-2.58-.27h0c-2.2-.39-4.26-1.12-5.6-1.66h0c-.32-.14-.49-.51-.37-.85h0s.18.07.18.07l-.18-.08c.12-.28.42-.45.72-.4l.13.03h0s.51.2.51.2c1.27.49,3,1.07,4.82,1.39h0l.54.09c2.64.4,4.65.1,5.99-.84.19-.22.3-.55.33-1.04.02-.25.02-.52,0-.83l-.05-1c-.09-1.52-.22-3.42.29-5.62.06-.36.32-.56.62-.7.3-.13.69-.21,1.07-.29l.4-.09c.14-.03.29-.07.42-.11.13-.04.25-.08.34-.13.04-.02.08-.04.1-.06.01,0,.02-.02.02-.02,0,0,0,0,0,0,0,0,0,0,0-.02,0-.02.01-.06,0-.12,0-.12-.03-.32-.15-.64-.21-.56-.69-1.46-1.73-2.85l-.48-.63c-.93-1.19-1.46-2.66-1.54-4.28h0c-.08-1.86-.29-3.97-1.13-6.78l-.18-.57c-1.51-4.67-7.41-7.62-14.8-7.22h-.01s0,0,0,0c-.36,0-.65-.25-.67-.62h0s.01-.14.01-.14c.05-.3.28-.53.61-.55l.73-.03Z" style="fill: #2c65f4; stroke: #2c65f4; stroke-width: .4px;"/>
  <path d="M23.04,34.97l.12.05h0s.62.32.62.32l.75.35h0s.11.07.11.07c.24.18.34.51.19.81h0c-.05.11-.13.19-.23.26l.13.13h-.49s-.01,0-.02,0c-.02,0-.04,0-.07,0-.04,0-.12-.02-.19-.06h0c-.55-.26-1.02-.49-1.41-.7h0c-.33-.17-.45-.56-.29-.89.15-.29.47-.42.76-.34Z" style="fill: #2c65f4; stroke: #2c65f4; stroke-width: .4px;"/>
  <path d="M31.83,38.69c.2-.22.53-.31.82-.14.3.18.43.57.24.89h0c-.61,1.1-1.27,2.79-1.8,4.37-.53,1.58-.92,3-.98,3.55h0c-.04.33-.32.57-.64.58h0s-.05,0-.05,0h-.01c-.35-.04-.62-.37-.58-.73h0c.07-.65.47-2.16,1.02-3.8.55-1.64,1.25-3.43,1.91-4.62h0s.08-.11.08-.11Z" style="fill: #2c65f4; stroke: #2c65f4; stroke-width: .4px;"/>
  <path d="M19.23,11.08c.37,0,.66.29.66.66v18.14c0,.37-.29.66-.66.66-.37,0-.66-.29-.66-.66V11.74c0-.37.29-.66.66-.66Z" style="fill: #2c65f4; stroke: #2c65f4; stroke-width: .4px;"/>
  <path d="M19.23,32.55c.37,0,.66.29.66.66v2.38c0,.37-.29.66-.66.66s-.66-.29-.66-.66v-2.38c0-.37.29-.66.66-.66Z" style="fill: #2c65f4; stroke: #2c65f4; stroke-width: .4px;"/>
  <path d="M19.23,5.37c.37,0,.66.29.66.66v2.38c0,.37-.29.66-.66.66-.37,0-.66-.29-.66-.66v-2.38c0-.37.29-.66.66-.66Z" style="fill: #2c65f4; stroke: #2c65f4; stroke-width: .4px;"/>
  <path d="M19.23,17.94c.37,0,.66.29.66.66,0,.37-.29.66-.66.66h-5.03c-.37,0-.66-.29-.66-.66,0-.37.29-.66.66-.66h5.03Z" style="fill: #2c65f4; stroke: #2c65f4; stroke-width: .4px;"/>
  <path d="M10.84,17.94c.37,0,.66.29.66.66,0,.37-.29.66-.66.66h-2.44c-.37,0-.66-.29-.66-.66,0-.37.29-.66.66-.66h2.44Z" style="fill: #2c65f4; stroke: #2c65f4; stroke-width: .4px;"/>
  <path d="M19.23,22.35c.37,0,.66.29.66.66,0,.37-.29.66-.66.66H7.18c-.37,0-.66-.29-.66-.66,0-.37.29-.66.66-.66h12.05Z" style="fill: #2c65f4; stroke: #2c65f4; stroke-width: .4px;"/>
  <path d="M4.32,19.47c1.95,0,3.52,1.58,3.52,3.54,0,1.96-1.57,3.54-3.52,3.54-1.94,0-3.52-1.58-3.52-3.54,0-1.96,1.57-3.54,3.52-3.54ZM4.32,20.81c-1.21,0-2.2.99-2.2,2.21,0,1.22.99,2.21,2.2,2.21,1.21,0,2.2-.99,2.2-2.21,0-1.22-.99-2.21-2.2-2.21Z" style="fill: #2c65f4; stroke: #2c65f4; stroke-width: .4px;"/>
  <path d="M11.99,6.57c.37,0,.66.29.66.66v6.3h6.59c.37,0,.66.29.66.66,0,.37-.29.66-.66.66h-.2s-7.05-.01-7.05-.01c-.37,0-.66-.29-.66-.66v-6.95c0-.37.29-.66.66-.66Z" style="fill: #2c65f4; stroke: #2c65f4; stroke-width: .4px;"/>
  <path d="M11.99.8c1.95,0,3.52,1.58,3.52,3.54,0,1.96-1.57,3.54-3.52,3.54-1.94,0-3.52-1.58-3.52-3.54,0-1.96,1.57-3.54,3.52-3.54ZM11.99,2.14c-1.21,0-2.2.99-2.2,2.21,0,1.22.99,2.21,2.2,2.21,1.21,0,2.2-.99,2.2-2.21,0-1.22-.99-2.21-2.2-2.21Z" style="fill: #2c65f4; stroke: #2c65f4; stroke-width: .4px;"/>
  <path d="M19.23,26.79c.37,0,.66.29.66.66,0,.37-.29.66-.66.66h-3.94l-7.4,7.44c-.13.13-.29.19-.46.19h-.01c-.12,0-.25-.03-.36-.11l-.1-.08c-.25-.25-.24-.67,0-.93h0s7.61-7.65,7.61-7.65l.1-.08c.11-.07.23-.11.36-.11h4.21Z" style="fill: #2c65f4; stroke: #2c65f4; stroke-width: .4px;"/>
  <path d="M5.39,33.57c1.95,0,3.52,1.58,3.52,3.54,0,1.96-1.57,3.54-3.52,3.54-1.94,0-3.52-1.58-3.52-3.54,0-1.96,1.57-3.54,3.52-3.54ZM5.39,34.89c-1.21,0-2.2.99-2.2,2.21,0,1.22.99,2.21,2.2,2.21,1.21,0,2.2-.99,2.2-2.21,0-1.22-.99-2.21-2.2-2.21Z" style="fill: #2c65f4; stroke: #2c65f4; stroke-width: .4px;"/>
</svg>