<?xml version="1.0" encoding="UTF-8"?>
<svg id="Layer_1" data-name="Layer 1" xmlns="http://www.w3.org/2000/svg" viewBox="0 0 41 46">
  <path d="M10.97,12.6c.82-.44,1.85-.2,2.38.6l16.67,24.96.1.16c.43.82.2,1.86-.59,2.39l-3.01,2.04h0c-.84.56-1.98.35-2.54-.5h0s-.17-.27-.17-.27c-2.69,1.67-5.67,2.47-8.57,2.47-4.77,0-9.33-2.17-12.05-6.26l-.31-.47c-1.48-2.39-2.18-5.17-2.04-8.07h0c0-.38.34-.65.68-.63h0c.39,0,.66.35.64.7h0c-.13,2.78.59,5.46,2.1,7.74l.2.28c4.16,5.87,12.67,7.14,19.15,2.77l.12-.07c.29-.12.62-.02.8.25l.54.81.07.08c.17.17.43.2.63.06h0l3.02-2.04c.23-.16.29-.47.14-.7h0S12.24,13.95,12.24,13.95h0c-.16-.24-.46-.3-.69-.14h0s-3.02,2.04-3.02,2.04h0c-.11.08-.18.19-.21.31-.02.13,0,.27.07.39l.54.81.07.12c.12.29.02.62-.25.8h0c-3.02,2.05-5.2,5.04-6.13,8.45h0c-.1.35-.46.57-.82.46-.31-.09-.51-.38-.48-.69l.02-.14c.97-3.5,3.13-6.61,6.13-8.82l-.18-.27h0c-.28-.42-.36-.9-.28-1.37h0s.04-.18.04-.18c.12-.4.37-.75.73-1h0s3.02-2.04,3.02-2.04h0s.16-.1.16-.1Z" style="fill: #6444db; stroke: #6444db; stroke-width: .4px;"/>
  <path d="M11.08,21.5c.29-.12.62-.02.8.25.21.31.12.72-.19.93h0c-4.01,2.71-5.22,7.93-2.74,11.63l.23.33c2.43,3.26,7.14,4.06,10.95,1.86l-7.85-11.76c-.21-.32-.12-.72.19-.93.31-.21.72-.12.92.19l8.25,12.34h0s.06.12.06.12c.1.25.04.53-.15.72l-.11.09c-1.81,1.22-3.85,1.81-5.85,1.81h-.03c-3.06,0-6-1.39-7.74-4.02h0c-2.89-4.33-1.48-10.38,3.12-13.49h0s.12-.07.12-.07Z" style="fill: #6444db; stroke: #6444db; stroke-width: .4px;"/>
  <path d="M39.53,9c.38,0,.67.3.67.67v33.33c0,1.54-1.25,2.79-2.77,2.79h-.1s-9.99-.01-9.99-.01c-.38,0-.67-.3-.67-.67,0-.38.29-.67.67-.67h10.08c.79,0,1.45-.65,1.45-1.46V9.67c0-.38.29-.67.67-.67Z" style="fill: #6444db; stroke: #6444db; stroke-width: .4px;"/>
  <path d="M36.59,1.36c.61-.56,1.46-.71,2.25-.39h0l.15.07c.74.37,1.19,1.1,1.19,1.94v3.71c0,.38-.29.67-.67.67-.38,0-.67-.3-.67-.67v-3.71c0-.41-.27-.67-.52-.78-.23-.08-.53-.1-.79.09l-.11.1-16.59,17.37h0c-.11.12-.28.2-.45.21v.02c-.17,0-.34-.06-.46-.19h0s0,0,0,0h0c-.24-.23-.26-.58-.09-.84l.09-.11L36.47,1.47l.12-.12Z" style="fill: #6444db; stroke: #6444db; stroke-width: .4px;"/>
  <path d="M30.73,19.7c.19-.14.44-.17.66-.08.24.1.42.33.42.61v15.15c0,.34-.25.62-.58.66l-.02.02h-.08c-.38,0-.67-.3-.67-.67v-13.48l-4.8,5.02h0c-.26.28-.68.27-.95.01h0s0,0,0,0h0c-.27-.26-.26-.68,0-.95h0l5.96-6.23h0s.08-.07.08-.07Z" style="fill: #6444db; stroke: #6444db; stroke-width: .4px;"/>
  <path d="M20.92,17.78c.24-.22.59-.23.84-.05l.1.09h0s.94,1.04.94,1.04l.08.11c.16.27.11.61-.12.83h0s0,0,0,0c0,0,0,0,0,0h0c-.14.13-.31.17-.44.17h-.01c-.18,0-.35-.06-.49-.21h0s-.94-1.03-.94-1.03h0c-.25-.28-.23-.7.04-.95Z" style="fill: #6444db; stroke: #6444db; stroke-width: .4px;"/>
  <path d="M24.48,14.07c.24-.22.59-.23.84-.05l.1.09h0s.93,1.02.93,1.02h0c.25.27.23.69-.04.94h0s0,0,0,0c0,0,0,0,0,0h0c-.14.13-.31.17-.44.17h-.01c-.18,0-.35-.06-.49-.21h0s-.93-1.02-.93-1.02h0c-.25-.28-.23-.7.04-.95Z" style="fill: #6444db; stroke: #6444db; stroke-width: .4px;"/>
  <path d="M28.01,10.34c.24-.22.59-.23.84-.05l.1.09h0s.93,1.02.93,1.02h0c.25.27.23.69-.04.94h0s0,0,0,0c0,0,0,0,0,0h0c-.14.13-.31.17-.44.17h-.01c-.18,0-.35-.06-.49-.21h0s-.93-1.02-.93-1.02h0c-.25-.28-.23-.7.04-.95Z" style="fill: #6444db; stroke: #6444db; stroke-width: .4px;"/>
  <path d="M31.57,6.63c.24-.22.59-.23.84-.05l.1.09h0s.91,1.01.91,1.01h0c.25.27.23.69-.04.94h0s0,0,0,0c0,0,0,0,0,0h0c-.14.13-.31.17-.44.17h-.01c-.18,0-.35-.06-.49-.21h0s-.91-1-.91-1h0c-.25-.28-.23-.7.04-.95Z" style="fill: #6444db; stroke: #6444db; stroke-width: .4px;"/>
</svg>