<?xml version="1.0" encoding="UTF-8"?>
<svg id="Layer_1" data-name="Layer 1" xmlns="http://www.w3.org/2000/svg" viewBox="0 0 50 40">
  <path d="M24.43,27.51c3.91,0,7.43,1.88,8.75,4.67,2.5.02,4.78.78,6.44,2.01,1.69,1.25,2.75,2.98,2.75,4.91,0,.37-.29.66-.66.66-.37,0-.66-.29-.66-.66,0-1.52-.87-2.92-2.31-3.94-1.35-.96-3.2-1.58-5.25-1.66h-.41s-.29,0-.29,0c-.23,0-.47-.1-.6-.32l-.05-.1c-.94-2.47-4.08-4.25-7.71-4.25-3.63,0-6.77,1.77-7.71,4.25h0c-.1.27-.37.43-.65.42h0s-.29,0-.29,0c-2.22,0-4.22.64-5.67,1.67-1.44,1.02-2.31,2.42-2.31,3.94,0,.37-.29.66-.66.66-.37,0-.66-.29-.66-.66,0-1.94,1.07-3.67,2.75-4.91,1.66-1.23,3.94-1.98,6.44-2,1.32-2.79,4.84-4.67,8.75-4.67Z" style="fill: #2c65f4; stroke: #2c65f4; stroke-width: .4px;"/>
  <path d="M7.92,15.98c.23-.29.64-.33.93-.11l.38.31c1.87,1.58,3.57,3.86,4.93,6.63h0c.81,1.63,1.51,3.43,2.01,5.24h0c.1.36-.11.71-.45.81h-.03s-.04,0-.04,0c0,0-.01,0-.02,0-.02,0-.06,0-.1,0h-.08l-.02-.02c-.22-.03-.41-.16-.51-.37l-.04-.11c-.49-1.72-1.14-3.45-1.91-5h0c-1.37-2.79-3.08-5.03-4.93-6.48h0c-.29-.23-.33-.65-.11-.93Z" style="fill: #2c65f4; stroke: #2c65f4; stroke-width: .4px;"/>
  <path d="M1.24,10.93c4.28-1.53,7.77-1.54,10.35.02l.23.14c2.31,1.51,3.76,4.3,4.37,8.25h0c.06.35-.18.7-.55.75h0s0,0,0,0c0,0,0,0,0,0h0c-.35.05-.69-.19-.74-.56h0c-.57-3.73-1.92-6.22-3.98-7.46h0c-2.08-1.25-5-1.3-8.71-.06.45,2.68,1.02,4.84,1.74,6.51.68,1.6,1.49,2.73,2.41,3.44l.19.14h0s.18.12.18.12c1.64,1.04,3.55.83,5.66.43l.95-.19.13-.03h0s.13-.01.13-.01c.3,0,.58.22.63.53.06.34-.16.7-.51.76h0s-.13.03-.13.03h0s0,0,0,0c-1.28.25-2.6.52-3.89.54l-.02.02h-.08c-1.32,0-2.62-.28-3.81-1.12h0c-2.45-1.71-4.01-5.41-4.96-11.52h0c-.03-.27.08-.54.33-.68l.11-.05Z" style="fill: #2c65f4; stroke: #2c65f4; stroke-width: .4px;"/>
  <path d="M38.52,18.89c.36-.08.7.15.78.5.08.36-.15.71-.49.79h0c-1.62.36-3.37,1.04-4.89,1.96h0c-1.88,1.11-3.35,2.48-4.26,3.94h0c-.13.21-.34.31-.56.31-.1,0-.19-.02-.27-.06l-.08-.04c-.32-.19-.39-.61-.21-.91h0s.2-.31.2-.31c1.03-1.52,2.58-2.92,4.5-4.07h0s.63-.36.63-.36c1.48-.8,3.11-1.42,4.65-1.75h0Z" style="fill: #2c65f4; stroke: #2c65f4; stroke-width: .4px;"/>
  <path d="M39.45,13.36l.4.03c2,.18,4.02,1.15,5.63,2.29.86.61,1.61,1.27,2.19,1.91.57.63.99,1.23,1.16,1.74l.03.09c.04.21-.02.43-.17.58h0c-3.06,3.18-5.95,4.82-8.8,4.9v.02h-.2c-2.22,0-4.38-.95-6.53-2.84h0c-.27-.23-.31-.66-.06-.94.24-.26.65-.31.93-.06l.42.35c2.07,1.68,4.07,2.37,6.11,2.1,2.16-.28,4.41-1.63,6.88-4.13-.43-.75-1.51-1.86-2.93-2.81-1.49-1.01-3.32-1.83-5.1-1.9h0c-1.13-.05-2.11.23-2.93.81-.72.51-1.34,1.27-1.84,2.29l-.21.45c-.15.34-.54.47-.86.35h-.01c-.33-.15-.49-.54-.35-.87l.15-.34c.77-1.65,1.78-2.66,2.83-3.26,1.12-.64,2.29-.79,3.26-.76Z" style="fill: #2c65f4; stroke: #2c65f4; stroke-width: .4px;"/>
  <path d="M24.88,9.46c.25-.27.67-.26.93,0h0c1.56,1.51,2.85,3.39,3.85,5.61l.24.56c.55,1.31.98,2.69,1.25,4.03h0c.08.36-.17.72-.52.78h-.02s-.19,0-.19,0l-.02-.02c-.23-.03-.43-.18-.52-.4l-.03-.11c-.28-1.43-.78-2.92-1.41-4.31l-.18-.38c-.91-1.9-2.06-3.52-3.39-4.82h0c-.27-.26-.26-.67,0-.93h0Z" style="fill: #2c65f4; stroke: #2c65f4; stroke-width: .4px;"/>
  <path d="M16.8,1.35c1.12-.41,3.09-.68,5.25-.48,2.16.2,4.53.86,6.44,2.35l.25.2c2.48,2.06,3.52,5.13,3.12,9.07h0c-.04.35-.35.62-.71.6h-.01c-.35-.04-.62-.35-.58-.73.35-3.64-.63-6.35-2.87-8.1h0c-1.58-1.23-3.57-1.83-5.45-2.04-1.78-.2-3.44-.05-4.5.22.89,8.31,3.09,10.66,4.64,11.71h0s.32.2.32.2c1.62.95,3.68,1.07,6.19.34l.13-.03c.31-.02.59.18.68.48.09.31-.06.62-.33.76l-.12.05c-1.19.35-2.32.53-3.36.53-1.5,0-2.85-.36-4.01-1.08l-.23-.15c-1.91-1.29-3.11-3.42-3.88-5.8-.78-2.38-1.15-5.03-1.38-7.42h0c-.02-.25.1-.51.33-.64l.1-.05Z" style="fill: #2c65f4; stroke: #2c65f4; stroke-width: .4px;"/>
</svg>