<?xml version="1.0" encoding="UTF-8"?>
<svg id="Layer_1" data-name="Layer 1" xmlns="http://www.w3.org/2000/svg" viewBox="0 0 48 48">
  <path d="M46.61,13h0s0,0,0,0c0,0,0,0,0,0h0c.34.03.63.33.59.7h0c-.25,3.59-1.79,6.96-4.33,9.51-5.17,5.2-13.47,5.83-19.27,1.46l-.52-.37c-1.05-.71-2.18-1.26-3.38-1.65l-.61-.18c-4.65-1.25-9.65.1-13.06,3.53-2.31,2.32-3.71,5.4-3.94,8.67-.02.35-.31.62-.66.62h-.2v-.06c-.27-.09-.48-.35-.44-.67h0c.25-3.59,1.78-6.96,4.31-9.51,3.75-3.76,9.24-5.24,14.33-3.87l.34.09c1.67.49,3.21,1.27,4.62,2.32l.5.36c5.26,3.57,12.49,2.9,17.06-1.7,2.31-2.32,3.71-5.4,3.94-8.67.02-.37.35-.64.7-.6Z" style="fill: #6444db; stroke: #6444db; stroke-width: .4px;"/>
  <path d="M26.31,28.9c.31-.07.62.09.75.37l.04.12h0s.09.47.09.47c.89,4.82-.63,9.73-4.12,13.23-2.54,2.55-5.9,4.09-9.46,4.35h0s-.04,0-.04,0c-.31,0-.55-.21-.63-.49l-.03-.12h0c-.02-.31.18-.61.47-.69l.13-.02c3.24-.23,6.3-1.64,8.63-3.96l.3-.31c3.06-3.27,4.32-7.79,3.37-12.16h0c-.08-.36.15-.7.49-.79Z" style="fill: #6444db; stroke: #6444db; stroke-width: .4px;"/>
  <path d="M34.52.81c.3.04.55.28.57.6.02.34-.24.68-.6.7h0c-3.24.23-6.32,1.64-8.63,3.96-3.27,3.29-4.65,7.96-3.67,12.47h0c.08.34-.12.67-.44.77v.04h-.2c-.31,0-.58-.21-.64-.52h0c-1.08-4.97.43-10.08,4.02-13.69l.24-.24c2.51-2.41,5.77-3.86,9.22-4.1h0s.13,0,.13,0Z" style="fill: #6444db; stroke: #6444db; stroke-width: .4px;"/>
  <path d="M24.77,17.43c.22-.14.5-.14.72,0l.1.08h0s4.99,5.02,4.99,5.02l.08.1c.16.25.13.6-.08.82h0s-.14-.13-.14-.13l.14.14c-.13.13-.29.19-.46.19h-.01c-.12,0-.25-.04-.36-.11l-.1-.08-4.99-5.01c-.25-.25-.24-.67,0-.93h0s.1-.09.1-.09Z" style="fill: #6444db; stroke: #6444db; stroke-width: .4px;"/>
  <path d="M26.15,9.52c.22-.14.5-.14.72,0l.1.08h0s11.49,11.55,11.49,11.55l.08.1c.16.25.13.6-.08.82h0c-.13.13-.29.19-.46.19h-.01c-.12,0-.25-.03-.36-.11l-.1-.08-11.49-11.55c-.25-.25-.24-.67,0-.93h0s.1-.09.1-.09Z" style="fill: #6444db; stroke: #6444db; stroke-width: .4px;"/>
  <path d="M31.2,5.3c.22-.14.5-.14.72,0l.1.08h0s10.64,10.7,10.64,10.7l.08.1c.16.25.13.6-.08.83h0c-.13.13-.29.19-.46.19h-.01c-.12,0-.25-.03-.36-.11l-.1-.08-10.64-10.7c-.25-.25-.24-.67,0-.93h0s.1-.09.1-.09Z" style="fill: #6444db; stroke: #6444db; stroke-width: .4px;"/>
  <path d="M17.42,24.8c.23-.25.58-.25.83-.09l.1.08h0s4.99,5.02,4.99,5.02l.08.1c.16.25.13.6-.08.82h0s-.14-.14-.14-.14l.14.14c-.13.13-.29.19-.46.19h-.01c-.12,0-.25-.03-.36-.11l-.1-.08-4.99-5.02c-.25-.25-.24-.67,0-.93Z" style="fill: #6444db; stroke: #6444db; stroke-width: .4px;"/>
  <path d="M9.66,26.1c.22-.14.5-.14.72,0l.1.08h0s11.49,11.55,11.49,11.55l.08.1c.16.25.13.6-.08.82h0c-.13.13-.29.19-.46.19h-.01c-.12,0-.25-.03-.36-.11l-.1-.08-11.49-11.55c-.25-.25-.24-.67,0-.93h0s.1-.09.1-.09Z" style="fill: #6444db; stroke: #6444db; stroke-width: .4px;"/>
  <path d="M5.46,31.17c.22-.14.5-.14.72,0l.1.08h0s10.64,10.7,10.64,10.7l.08.1c.16.25.13.6-.08.83h0c-.13.13-.29.19-.46.19h-.01c-.12,0-.25-.03-.36-.11l-.1-.08-10.64-10.7c-.25-.25-.24-.67,0-.93h0s.1-.09.1-.09Z" style="fill: #6444db; stroke: #6444db; stroke-width: .4px;"/>
</svg>