<?xml version="1.0" encoding="UTF-8"?>
<svg id="Layer_1" data-name="Layer 1" xmlns="http://www.w3.org/2000/svg" viewBox="0 0 44 43">
  <path d="M41.03,31.43h0c1.05.06,2,.75,2.39,1.73l.09.26c.18.61.14,1.26-.11,1.86h0c-.29.69-.82,1.22-1.5,1.48h0s-5.03,2.02-5.03,2.02c-4.03,1.63-8.28,2.44-12.61,2.44h0s-.41,0-.41,0l-7.98-.09c-2.81-.03-5.61-.42-8.33-1.15h0c-.34-.1-.55-.45-.47-.8.07-.32.37-.51.67-.5l.13.02h0s.49.13.49.13c2.46.62,4.99.95,7.52.98h0l7.98.09h.81c4.04-.04,7.97-.83,11.72-2.34l5.03-2.02h0l.13-.06c.29-.15.53-.4.65-.71h0s.05-.14.05-.14c.1-.32.08-.66-.05-.98h0c-.2-.5-.69-.86-1.24-.9h-.26l-11.56,1.18h0c-.36.04-.68-.23-.73-.58-.04-.36.23-.69.58-.73h0s11.58-1.19,11.58-1.19h0s.01,0,.01,0c.1,0,.26-.01.43,0Z" style="fill: #2c65f4; stroke: #2c65f4; stroke-width: .4px;"/>
  <path d="M24.75,27.38h.16c.73.1,1.41.5,1.86,1.09l.09.13h0s.15.25.15.25c.32.58.4,1.25.25,1.91-.17.75-.63,1.39-1.29,1.78h0l-4.08,2.41h0s-.09.04-.13.06v.04h-.2c-.21,0-.39-.1-.51-.26l-.05-.07c-.18-.3-.09-.72.23-.9l4.08-2.41c.34-.2.58-.53.67-.93.09-.39.01-.78-.21-1.11h0c-.25-.37-.67-.61-1.09-.64-.16,0-.29,0-.42.04h0s-10.58,2.54-10.58,2.54h0c-.66.16-1.35.27-2.03.31h0l-3.35.2h0c-.37.02-.68-.25-.7-.62h0c-.02-.35.24-.68.62-.7l3.35-.2.46-.04c.46-.05.91-.13,1.34-.24h0s10.58-2.55,10.58-2.55h0s.2-.04.2-.04c.2-.03.41-.05.61-.04Z" style="fill: #2c65f4; stroke: #2c65f4; stroke-width: .4px;"/>
  <path d="M4.28,26.7h0s2.34.14,2.34.14h0s.26.03.26.03c1.27.22,2.2,1.36,2.13,2.68h0s-.68,10.12-.68,10.12c-.08,1.35-1.2,2.4-2.54,2.4h-.2v-.02l-2.3-.14h0c-1.4-.09-2.46-1.3-2.39-2.71h0s.68-10.12.68-10.12h0s.03-.25.03-.25c.09-.58.38-1.11.83-1.51.51-.45,1.17-.67,1.84-.63ZM4.21,28c-.32-.02-.64.08-.89.31-.25.23-.4.52-.42.86h0s-.68,10.12-.68,10.12h0c-.03.63.39,1.17.99,1.3h.16s2.34.15,2.34.15h0s.12,0,.12,0c.61-.02,1.14-.52,1.19-1.16l.68-10.12c.04-.69-.47-1.27-1.15-1.32h0s-2.34-.14-2.34-.14h0Z" style="fill: #2c65f4; stroke: #2c65f4; stroke-width: .4px;"/>
  <path d="M5.87,30.2c.37.02.64.34.62.7h0s-.04.61-.04.61h0c-.02.31-.24.55-.53.61h-.13s-.04.01-.04.01c-.37-.02-.64-.34-.62-.7h0s.2.01.2.01h-.2s.04-.62.04-.62c.02-.35.33-.64.7-.62Z" style="fill: #2c65f4; stroke: #2c65f4; stroke-width: .4px;"/>
  <path d="M25.46,3.85c.37,0,.66.29.66.66v2.55c.43.23.84.49,1.22.79.28.22.35.63.12.93h0c-.11.15-.27.22-.43.24l-.02.02h-.08c-.13,0-.28-.04-.39-.14h0c-.32-.24-.65-.46-1-.65l-.36-.18c-.23-.11-.38-.34-.38-.6v-2.96c0-.37.29-.66.66-.66Z" style="fill: #2c65f4; stroke: #2c65f4; stroke-width: .4px;"/>
  <path d="M18.46.8c.37,0,.66.29.66.66v6.03c0,.25-.15.48-.36.59h0s0,0,0,0c-2.6,1.24-4.3,3.93-4.3,6.83,0,4.17,3.38,7.55,7.51,7.55,4.13,0,7.51-3.39,7.51-7.55,0-1.49-.43-2.94-1.26-4.18h0c-.21-.31-.12-.71.18-.91.31-.21.71-.12.91.18h0c.97,1.45,1.47,3.15,1.47,4.91,0,4.89-3.96,8.87-8.83,8.87h-.48l.03-.03c-4.65-.25-8.36-4.12-8.36-8.86,0-3.27,1.82-6.3,4.67-7.82V1.46c0-.37.29-.66.66-.66Z" style="fill: #2c65f4; stroke: #2c65f4; stroke-width: .4px;"/>
  <path d="M26.82.8c.37,0,.66.29.66.66,0,.37-.29.66-.66.66h-9.73c-.37,0-.66-.29-.66-.66,0-.37.29-.66.66-.66h9.73Z" style="fill: #2c65f4; stroke: #2c65f4; stroke-width: .4px;"/>
  <path d="M18.61,13.37c1,0,1.95.19,2.78.55h0l.25.12c.16.08.32.17.47.27l.22.15h0s.14.1.14.1c.7.47,1.72.74,2.81.74.54,0,1.06-.07,1.55-.2h0s.13-.02.13-.02c.3-.01.58.19.67.49.11.37-.13.71-.47.81h0c-.6.16-1.24.24-1.88.24h0s-.01,0-.01,0h0c-1.42,0-2.77-.4-3.71-1.11h0c-.2-.15-.43-.29-.69-.39h0c-.65-.29-1.44-.45-2.25-.45-.54,0-1.07.07-1.57.21h0c-.36.1-.71-.11-.81-.46-.1-.36.11-.71.45-.81h0s.23-.06.23-.06c.54-.13,1.11-.2,1.69-.2Z" style="fill: #2c65f4; stroke: #2c65f4; stroke-width: .4px;"/>
  <path d="M35.64,19.78c2.27,0,4.11,1.85,4.11,4.13,0,2.28-1.84,4.13-4.11,4.13h-.2v-.02c-2.18-.11-3.91-1.92-3.91-4.13,0-.37.29-.66.66-.66s.66.29.66.66c0,1.55,1.25,2.81,2.79,2.81s2.79-1.25,2.79-2.81c0-1.55-1.25-2.81-2.79-2.81-.59,0-1.15.19-1.64.53h0c-.29.2-.7.15-.91-.15-.18-.25-.16-.6.05-.83l.1-.09c.71-.52,1.54-.77,2.4-.77Z" style="fill: #2c65f4; stroke: #2c65f4; stroke-width: .4px;"/>
  <path d="M3.98,14.4c1.75,0,3.18,1.44,3.18,3.19,0,1.76-1.43,3.19-3.18,3.19-1.75,0-3.18-1.43-3.18-3.19,0-1.76,1.43-3.19,3.18-3.19ZM3.98,15.71c-1.03,0-1.87.84-1.87,1.88,0,1.05.83,1.88,1.87,1.88,1.04,0,1.87-.83,1.87-1.88,0-1.05-.83-1.88-1.87-1.88Z" style="fill: #2c65f4; stroke: #2c65f4; stroke-width: .4px;"/>
  <path d="M8.61,6.41c.37,0,.66.29.66.66,0,.37-.29.66-.66.66-.65,0-1.18.53-1.18,1.19,0,.66.53,1.19,1.18,1.19.41,0,.81-.23,1.02-.61h0s.08-.11.08-.11c.2-.22.53-.31.82-.14.3.18.43.57.24.89h0c-.44.79-1.27,1.27-2.17,1.27h-.48l.05-.06c-1.17-.21-2.05-1.23-2.05-2.46,0-1.38,1.11-2.5,2.49-2.5Z" style="fill: #2c65f4; stroke: #2c65f4; stroke-width: .4px;"/>
</svg>