<?xml version="1.0" encoding="UTF-8"?>
<svg id="Layer_1" data-name="Layer 1" xmlns="http://www.w3.org/2000/svg" viewBox="0 0 25 25">
  <path d="M13.73,24.39c-.18,0-.33-.13-.34-.31-.02-.19.12-.36.31-.38,2.83-.3,5.3-2.11,6.47-4.73.05-.13.18-.21.32-.21.05,0,.1,0,.14.03.09.04.15.1.18.19.03.09.03.18,0,.27-1.26,2.84-3.94,4.81-7.02,5.13h-.06Z" style="fill: #0b1427;"/>
  <path d="M20.48,18.88s.07,0,.1.02c.12.05.17.19.12.31-1.24,2.8-3.9,4.75-6.93,5.07h-.02c-.12,0-.22-.09-.24-.21-.01-.13.08-.24.21-.26,2.87-.3,5.39-2.14,6.55-4.79.04-.09.13-.14.21-.14ZM20.48,18.66c-.18,0-.35.1-.41.27-1.14,2.58-3.58,4.36-6.38,4.66-.12.01-.23.07-.31.17-.08.1-.11.21-.1.33.02.23.22.41.45.41h.05c3.11-.33,5.84-2.32,7.12-5.2.1-.23,0-.5-.24-.6-.06-.03-.12-.04-.18-.04h0Z" style="fill: #0b1427;"/>
  <path d="M20.94,17.8c-.18-.04-.3-.22-.27-.41.08-.38.13-.78.16-1.18,0-.18.16-.33.35-.33.11,0,.19.04.26.12.07.07.09.16.09.25-.02.44-.08.87-.17,1.29-.03.16-.18.27-.34.27h-.07Z" style="fill: #0b1427;"/>
  <path d="M21.18,15.99h0c.13,0,.23.12.22.24-.02.42-.08.85-.17,1.27-.02.11-.12.18-.23.18h-.05c-.13-.03-.21-.15-.18-.28.08-.39.13-.8.16-1.2,0-.13.11-.22.24-.22M21.18,15.77c-.24,0-.44.19-.46.43-.02.39-.07.78-.16,1.16-.02.12,0,.24.07.34.07.1.17.17.29.2.03,0,.06,0,.1,0,.21,0,.4-.16.44-.36.09-.43.15-.87.17-1.3,0-.12-.04-.24-.12-.33-.08-.09-.19-.15-.32-.16h-.01Z" style="fill: #0b1427;"/>
  <path d="M21.09,14.82c-.17,0-.32-.13-.34-.3-.06-.39-.16-.79-.27-1.17-.06-.18.04-.38.23-.44h.1c.15-.01.28.08.33.23.13.41.23.84.3,1.27.03.19-.1.36-.29.39h-.05Z" style="fill: #0b1427;"/>
  <path d="M20.81,13.02c.1,0,.19.07.22.16.13.41.23.83.3,1.26.02.13-.07.25-.2.27h-.04c-.11,0-.21-.08-.23-.2-.06-.4-.16-.8-.27-1.18-.04-.13.03-.26.16-.3.02,0,.04,0,.07,0M20.81,12.8s-.1,0-.14.02c-.24.07-.38.33-.3.57.12.38.21.76.27,1.15.04.22.22.38.45.38h.07c.25-.04.42-.28.38-.53-.07-.44-.17-.87-.3-1.29-.06-.19-.24-.32-.44-.32h0Z" style="fill: #0b1427;"/>
  <path d="M12.84,22h-.24c-.09,0-.18-.04-.24-.11-.06-.07-.1-.16-.09-.25,0-.18.16-.33.35-.33h.22c3.06,0,5.56-2.49,5.56-5.56s-2.49-5.56-5.56-5.56c-2.72,0-5.03,1.95-5.48,4.62-.05.3-.07.61-.07.93,0,.21,0,.42.03.61.02.18-.11.36-.3.38-.21,0-.36-.13-.38-.3-.02-.22-.04-.45-.04-.7,0-.36.03-.71.09-1.04.5-3.02,3.1-5.2,6.16-5.2,3.45,0,6.25,2.8,6.25,6.25s-2.8,6.25-6.25,6.25h-.01Z" style="fill: #0b1427;"/>
  <path d="M12.84,9.61c3.38,0,6.14,2.75,6.14,6.14s-2.75,6.14-6.14,6.14h-.23c-.13,0-.23-.12-.22-.24,0-.13.11-.22.24-.22h.22c3.12,0,5.67-2.55,5.67-5.67s-2.55-5.67-5.67-5.67c-2.77,0-5.13,1.98-5.59,4.72-.05.31-.08.63-.08.95,0,.21.01.43.04.63.01.13-.08.24-.21.26h-.03c-.12,0-.22-.09-.23-.21-.02-.21-.04-.44-.04-.68,0-.35.03-.7.09-1.03.5-2.96,3.04-5.11,6.05-5.11M12.84,9.39c-3.11,0-5.76,2.23-6.27,5.3-.06.35-.09.7-.09,1.07,0,.24.01.48.04.7.03.23.22.41.45.41h.05c.12-.01.23-.07.3-.17.07-.1.11-.21.1-.33-.02-.19-.03-.39-.03-.6,0-.31.02-.61.07-.91.44-2.63,2.7-4.54,5.37-4.54,3,0,5.45,2.44,5.45,5.45s-2.44,5.45-5.45,5.45h-.2c-.27,0-.47.19-.47.44-.01.25.18.47.44.47h.24c3.51,0,6.36-2.86,6.36-6.36s-2.86-6.36-6.36-6.36Z" style="fill: #0b1427;"/>
  <path d="M7.5,24.17c-2.25,0-4.08-1.83-4.08-4.08s1.83-4.08,4.08-4.08,4.08,1.83,4.08,4.08-1.83,4.08-4.08,4.08ZM7.5,16.71c-1.86,0-3.38,1.52-3.38,3.38s1.52,3.38,3.38,3.38,3.38-1.52,3.38-3.38-1.52-3.38-3.38-3.38Z" style="fill: #0b1427;"/>
  <path d="M7.5,16.13c2.18,0,3.97,1.78,3.97,3.97s-1.78,3.97-3.97,3.97-3.97-1.78-3.97-3.97,1.78-3.97,3.97-3.97ZM7.5,23.58c1.92,0,3.49-1.57,3.49-3.49s-1.57-3.49-3.49-3.49-3.49,1.57-3.49,3.49,1.57,3.49,3.49,3.49ZM7.5,15.91c-2.31,0-4.19,1.88-4.19,4.19s1.88,4.19,4.19,4.19,4.19-1.88,4.19-4.19-1.88-4.19-4.19-4.19ZM7.5,23.36c-1.81,0-3.27-1.46-3.27-3.27s1.46-3.27,3.27-3.27,3.27,1.46,3.27,3.27-1.46,3.27-3.27,3.27Z" style="fill: #0b1427;"/>
  <path d="M7.5,22.54c-.93,0-1.78-.52-2.19-1.35-.09-.17-.01-.38.16-.47.05-.02.1-.04.16-.04.13,0,.25.07.31.19.3.6.9.97,1.58.97.22,0,.44-.04.65-.13.04-.01.08-.02.13-.02.14,0,.27.08.32.21.04.09.04.18,0,.27-.04.09-.1.15-.19.18-.29.12-.6.18-.91.18Z" style="fill: #0b1427;"/>
  <path d="M5.62,20.79c.09,0,.17.04.21.13.32.64.96,1.04,1.67,1.04.24,0,.47-.04.7-.13.03-.01.06-.01.09-.01.1,0,.18.06.21.15.05.12,0,.26-.13.3-.27.11-.57.17-.87.17-.89,0-1.69-.5-2.09-1.29-.06-.12-.01-.26.1-.32.04-.01.07-.02.1-.02M5.62,20.57c-.07,0-.14.01-.21.05-.11.05-.19.15-.23.27-.04.12-.03.24.02.35.44.87,1.32,1.41,2.29,1.41.33,0,.65-.06.95-.18.11-.04.2-.13.25-.24.04-.11.05-.24,0-.35-.07-.18-.24-.29-.42-.29-.06,0-.12.01-.17.03-.19.08-.4.12-.61.12-.63,0-1.19-.35-1.47-.91-.07-.16-.24-.25-.41-.25Z" style="fill: #0b1427;"/>
  <path d="M13.22,8.16c-1.92,0-3.54-1.44-3.77-3.34-.19-1.61.65-3.17,2.12-3.87.04-.02.1-.04.15-.04.13,0,.25.07.31.19.08.17.01.38-.16.46-1.19.58-1.89,1.85-1.73,3.17.19,1.55,1.51,2.73,3.08,2.73.13,0,.25,0,.38-.02.82-.1,1.55-.51,2.07-1.17.51-.65.74-1.46.64-2.29-.04-.38-.16-.74-.33-1.07-.04-.08-.05-.18-.02-.27s.09-.16.17-.21c.05-.03.1-.04.16-.04.13,0,.24.07.3.18.21.41.36.85.41,1.31.13,1.01-.16,2-.78,2.8-.63.8-1.52,1.3-2.53,1.43-.16.02-.31.03-.46.03h0Z" style="fill: #0b1427;"/>
  <path d="M11.73,1.03c.09,0,.17.05.21.13.06.12,0,.26-.11.31-1.24.6-1.95,1.92-1.79,3.28.2,1.63,1.58,2.83,3.19,2.83.13,0,.26,0,.39-.02.85-.1,1.61-.53,2.15-1.21.53-.67.76-1.52.66-2.37-.04-.39-.16-.77-.35-1.11-.06-.12-.01-.26.1-.32.04-.01.07-.03.11-.03.08,0,.16.04.21.13.21.4.34.83.4,1.27.24,2.01-1.2,3.85-3.21,4.1-.15.01-.3.03-.44.03-1.83,0-3.43-1.38-3.65-3.24-.19-1.56.64-3.07,2.05-3.76.03-.01.07-.02.1-.02M11.73.81c-.07,0-.13.01-.2.04-1.5.73-2.37,2.33-2.18,3.99.24,1.96,1.9,3.43,3.87,3.43.16,0,.32,0,.47-.03,2.14-.26,3.66-2.2,3.41-4.34-.06-.47-.2-.93-.42-1.35-.08-.15-.24-.24-.41-.24-.07,0-.15.01-.21.05-.22.12-.31.39-.19.61.17.32.28.67.33,1.04.1.79-.13,1.58-.61,2.2-.5.63-1.2,1.03-2,1.12-.13.01-.24.02-.36.02-1.51,0-2.78-1.13-2.97-2.63-.16-1.27.52-2.49,1.66-3.06.23-.11.33-.38.21-.61-.07-.16-.24-.26-.41-.26h0Z" style="fill: #0b1427;"/>
  <path d="M14.86,1.68c-.06,0-.12-.01-.16-.04-.32-.17-.66-.29-1.02-.34-.19-.03-.32-.21-.29-.39.02-.17.17-.3.34-.3.49.07.91.21,1.29.42.17.09.23.3.14.47-.06.11-.18.18-.3.18Z" style="fill: #0b1427;"/>
  <path d="M13.73.72h.04c.42.06.83.2,1.21.4.11.06.16.21.1.32-.04.08-.13.13-.21.13-.04,0-.07,0-.11-.03-.33-.18-.69-.3-1.05-.35-.13-.02-.21-.14-.2-.27.01-.12.12-.2.23-.2ZM13.73.5c-.22,0-.42.17-.45.39-.04.25.13.48.38.52.34.05.67.16.98.33.07.04.14.05.21.05.17,0,.33-.09.4-.24.12-.22.04-.5-.18-.62-.4-.21-.84-.36-1.28-.43h-.07Z" style="fill: #0b1427;"/>
  <path d="M8.09,12.6c-.07,0-.15-.02-.21-.07l-2.66-1.95c-.48.5-1.15.78-1.84.78-1.41,0-2.57-1.15-2.57-2.57s1.15-2.57,2.57-2.57c1.21,0,2.27.87,2.52,2.05.04.18-.08.37-.27.41h-.02c-.22,0-.36-.11-.39-.27-.18-.87-.95-1.49-1.83-1.49-1.04,0-1.87.84-1.87,1.87s.84,1.87,1.87,1.87c.59,0,1.16-.29,1.51-.76.07-.09.17-.14.28-.14.07,0,.15.02.21.07l2.91,2.14c.07.05.13.13.14.23.01.09,0,.19-.06.26-.07.09-.17.14-.28.14h0Z" style="fill: #0b1427;"/>
  <path d="M3.39,6.35c1.16,0,2.18.82,2.4,1.96.03.13-.06.25-.18.27h-.04c-.11,0-.21-.07-.23-.18-.18-.92-1.01-1.58-1.95-1.58-1.09,0-1.98.89-1.98,1.98s.89,1.98,1.98,1.98c.63,0,1.23-.3,1.6-.81.04-.06.12-.1.19-.1.05,0,.1.01.14.04l2.91,2.14c.1.07.13.22.05.33-.04.06-.12.1-.19.1-.05,0-.1-.01-.14-.04l-2.73-2c-.47.52-1.13.82-1.83.82-1.35,0-2.46-1.1-2.46-2.46s1.1-2.46,2.46-2.46M3.39,6.13c-1.47,0-2.68,1.2-2.68,2.68s1.2,2.68,2.68,2.68c.7,0,1.36-.27,1.86-.75l2.57,1.89c.08.06.17.09.27.09.15,0,.28-.07.37-.18.07-.1.1-.22.08-.34-.02-.12-.08-.23-.18-.3l-2.91-2.14c-.08-.06-.17-.09-.27-.09-.15,0-.28.07-.37.18-.33.45-.87.72-1.42.72-.97,0-1.76-.79-1.76-1.76s.79-1.76,1.76-1.76c.84,0,1.56.59,1.72,1.41.04.21.23.36.44.36.03,0,.06,0,.09,0,.24-.05.41-.3.36-.54-.25-1.24-1.35-2.14-2.62-2.14h.01Z" style="fill: #0b1427;"/>
  <path d="M18.62,11.09l1.44-1.05c-.21-.37-.31-.8-.31-1.23,0-1.41,1.15-2.57,2.57-2.57s2.57,1.15,2.57,2.57-1.15,2.57-2.57,2.57c-.17,0-.34-.01-.51-.05-.09-.02-.17-.07-.22-.15-.05-.07-.07-.17-.05-.26.03-.16.18-.28.34-.28.19.03.32.04.44.04,1.04,0,1.87-.84,1.87-1.87s-.84-1.87-1.87-1.87-1.87.84-1.87,1.87c0,.4.13.78.36,1.11.05.07.07.16.06.26-.01.09-.06.17-.14.23l-1.69,1.24-.41-.55h0Z" style="fill: #0b1427;"/>
  <path d="M22.31,6.35c1.35,0,2.46,1.1,2.46,2.46s-1.1,2.46-2.46,2.46c-.16,0-.33-.01-.49-.05-.13-.02-.21-.15-.18-.27.02-.11.12-.18.23-.18h.04c.13.03.26.04.39.04,1.09,0,1.98-.89,1.98-1.98s-.89-1.98-1.98-1.98-1.98.89-1.98,1.98c0,.43.13.83.38,1.18.04.05.05.11.04.18,0,.06-.04.12-.1.16l-1.61,1.18-.28-.38,1.43-1.04c-.23-.38-.35-.81-.35-1.26,0-1.35,1.1-2.46,2.46-2.46M22.31,6.13c-1.47,0-2.68,1.2-2.68,2.68,0,.41.1.82.28,1.19l-1.27.93-.18.13.13.18.28.38.13.18.18-.13,1.61-1.18c.1-.07.16-.18.18-.3.01-.12-.01-.24-.08-.34-.22-.3-.34-.67-.34-1.04,0-.97.79-1.76,1.76-1.76s1.76.79,1.76,1.76-.79,1.76-1.76,1.76c-.12,0-.24-.01-.35-.04-.03,0-.06,0-.09,0-.21,0-.41.16-.44.37-.05.24.11.49.36.54.18.04.36.05.53.05,1.47,0,2.68-1.2,2.68-2.68s-1.2-2.68-2.68-2.68h-.01Z" style="fill: #0b1427;"/>
</svg>