<svg width="66" height="58" viewBox="0 0 66 58" fill="none" xmlns="http://www.w3.org/2000/svg">
<path d="M4.87061 9.00232C5.38404 9.00248 5.79929 9.41981 5.79932 9.93298C5.79932 10.4462 5.38406 10.8635 4.87061 10.8636H3.72119C3.03262 10.8639 2.42822 11.4977 2.42822 12.3334V53.5433C2.4283 54.243 2.86526 54.8302 3.42041 54.9691H3.42139L4.02588 55.1078C7.18966 55.7724 12.3891 55.9763 17.6978 55.8324C23.3547 55.6791 29.0944 55.1325 32.5649 54.347L32.6665 54.3295C32.7688 54.318 32.8727 54.3244 32.9741 54.347H32.9751L33.6519 54.4916C37.1639 55.1985 42.5418 55.6867 47.8462 55.8304C53.5092 55.9839 59.0474 55.743 62.1235 54.9691L62.2271 54.9379C62.7331 54.7563 63.1186 54.2006 63.1187 53.5433V48.7269C63.1187 48.2137 63.5338 47.7963 64.0474 47.7963C64.5609 47.7963 64.976 48.2137 64.9761 48.7269V53.5433C64.976 54.9832 64.1176 56.2502 62.8374 56.6957L62.5757 56.7728C59.3728 57.5783 53.7067 57.8283 47.9614 57.682C42.2387 57.5363 36.3971 56.9961 32.77 56.2054C28.55 57.1266 21.3302 57.7057 14.7847 57.7201V57.724H14.5347C10.1934 57.724 6.14709 57.4718 3.48486 56.8949L2.97119 56.7758C1.55006 56.4206 0.570801 55.0839 0.570801 53.5453V12.3334C0.570801 10.5102 1.9704 9.00252 3.72119 9.00232H4.87061Z" fill="#D9F74F" stroke="#D9F74F" stroke-width="0.5"/>
<path d="M62.4933 9.76074C62.8236 9.42409 63.3601 9.38698 63.7355 9.68652L63.8801 9.80957C64.5816 10.4424 64.9757 11.352 64.9758 12.333V44.4785C64.9756 44.905 64.6886 45.2635 64.2971 45.373V45.4111H64.0471C63.5336 45.411 63.1184 44.9936 63.1183 44.4805V12.333C63.1183 11.913 62.9596 11.5206 62.6955 11.249L62.5754 11.1406V11.1396C62.1755 10.8174 62.112 10.2338 62.4299 9.83301L62.4308 9.83203L62.4933 9.76074Z" fill="#D9F74F" stroke="#D9F74F" stroke-width="0.5"/>
<path d="M6.9151 43.7742C7.42863 43.7742 7.84379 44.1916 7.84381 44.7048V48.0212C7.84381 48.4585 8.19683 48.8103 8.62506 48.8103H28.2471C28.7606 48.8104 29.1757 49.2279 29.1758 49.741C29.1758 50.2542 28.7607 50.6716 28.2471 50.6716H8.62506C7.1685 50.6716 5.98639 49.4817 5.98639 48.0212V44.7048C5.98642 44.1916 6.40153 43.7742 6.9151 43.7742Z" fill="#F6F5F2" stroke="#F6F5F2" stroke-width="0.5"/>
<path d="M10.1658 1.85083C10.9688 1.21065 11.9934 0.923555 13.0046 1.05103L13.2068 1.08228L13.948 1.22681C17.7586 2.009 23.151 3.71691 28.5876 5.86938H28.5886C30.2791 6.53341 31.8603 7.2003 33.158 7.79419H33.1589C33.626 8.00717 33.8308 8.55989 33.6169 9.02759L33.6179 9.02856C33.4186 9.46845 32.9199 9.67539 32.4753 9.52368L32.3875 9.48853C31.1219 8.90808 29.5741 8.25554 27.9119 7.60278H27.9109C22.2008 5.34103 16.5805 3.58986 12.8777 2.91333V2.91235C12.3971 2.82658 11.9041 2.92706 11.4949 3.18677L11.324 3.30786C10.9388 3.61498 10.6858 4.05551 10.6101 4.53931L10.5886 4.74829L8.93628 38.3303V38.3313C8.89321 39.1827 9.40165 39.9592 10.2 40.2639H10.2009L21.0251 44.3284L21.113 44.3665C21.5067 44.562 21.7082 45.0116 21.5974 45.4358L21.5691 45.5266C21.4382 45.8777 21.1169 46.1 20.7683 46.1262L20.7546 46.134H20.696C20.5879 46.134 20.4754 46.1158 20.365 46.0715V46.0706L9.5437 42.0071H9.54272C7.98472 41.4148 6.99504 39.9005 7.07788 38.2395L8.73022 4.65747L8.74585 4.45239C8.84418 3.50003 9.2939 2.61807 10.0085 1.98364L10.1658 1.85083Z" fill="#F6F5F2" stroke="#F6F5F2" stroke-width="0.5"/>
<path d="M46.5671 8.05176C46.8664 7.68719 47.3962 7.60173 47.7975 7.87012L47.8893 7.94043C48.0917 8.1166 48.2095 8.37353 48.2097 8.64453V17.5205C48.2097 18.1847 47.8463 18.7883 47.2614 19.0986L47.2604 19.0996C46.7113 19.3883 46.0595 19.3691 45.53 19.0566L45.4255 18.9902L43.07 17.3652L40.7145 18.9902C40.1681 19.3651 39.4653 19.4076 38.8796 19.0996C38.2933 18.7913 37.9304 18.1843 37.9304 17.5205V9.57324H33.695V48.2949C33.695 48.5794 33.9251 48.8086 34.2018 48.8086H56.9128C57.3458 48.8086 57.6989 48.4542 57.6989 48.0195V10.3643C57.6988 9.92813 57.3442 9.5752 56.9128 9.5752H51.5593C51.0457 9.57513 50.6306 9.15778 50.6306 8.64453C50.6308 8.13146 51.0459 7.71394 51.5593 7.71387H56.9128C58.371 7.71387 59.5552 8.90342 59.5554 10.3643V48.0215C59.5554 49.4808 58.3738 50.6683 56.9177 50.6709V50.6719H34.2057C32.9025 50.6718 31.8426 49.607 31.8425 48.2979V8.64453C31.8427 8.13142 32.2577 7.71387 32.7712 7.71387H38.861C38.9783 7.71388 39.0946 7.7353 39.2077 7.78125L39.2067 7.78223C39.5585 7.92266 39.7915 8.26471 39.7917 8.64453V17.3682L42.5456 15.4688L42.6696 15.3975C42.9239 15.2739 43.2214 15.2735 43.4763 15.3965L43.6003 15.4688L46.3552 17.3682V8.66895C46.3509 8.48609 46.3986 8.29482 46.5104 8.12793L46.5671 8.05176Z" fill="#F6F5F2" stroke="#F6F5F2" stroke-width="0.5"/>
</svg>
