<?xml version="1.0" encoding="UTF-8"?>
<svg id="Layer_1" data-name="Layer 1" xmlns="http://www.w3.org/2000/svg" viewBox="0 0 157 132">
  <path d="M57.1.75c9.82,0,17.82,7.99,17.82,17.82v93.51c0,10.57-8.6,19.17-19.17,19.17s-19.17-8.6-19.17-19.17v-7.94c0-.96.78-1.73,1.73-1.73s1.73.77,1.73,1.73v7.94c0,8.66,7.05,15.71,15.71,15.71s15.71-7.05,15.71-15.71V18.57c0-7.91-6.44-14.35-14.35-14.35-7.92,0-14.35,6.44-14.35,14.35v.57c0,.96-.77,1.73-1.73,1.73-.96,0-1.73-.77-1.73-1.73v-1.03c.25-9.61,8.15-17.36,17.82-17.36Z" style="fill: #f6f5f2; stroke: #f6f5f2; stroke-width: .5px;"/>
  <path d="M35.34,74.49c.96,0,1.73.77,1.73,1.73,0,.96-.78,1.73-1.73,1.73-9.71,0-17.57,7.06-17.57,15.69s7.86,15.68,17.57,15.68c.91,0,1.82-.06,2.69-.18h.18c.88-.04,1.65.59,1.77,1.48.12.89-.45,1.71-1.3,1.92l-.17.03c-1.04.14-2.1.22-3.17.22-11.58,0-21.03-8.57-21.03-19.15s9.46-19.15,21.03-19.15Z" style="fill: #f6f5f2; stroke: #f6f5f2; stroke-width: .5px;"/>
  <path d="M27.49,36.04c.63,0,1.25.02,1.86.07h0c.95.07,1.66.91,1.59,1.86-.07.95-.92,1.65-1.86,1.59h0c-.51-.04-1.05-.06-1.59-.06-12.63,0-22.97,11.86-22.97,26.5,0,10.05,4.84,19.1,12.6,23.65l.15.1c.66.48.89,1.37.55,2.12l-.08.16c-.32.55-.9.85-1.49.85-.3,0-.6-.08-.87-.24h0c-8.84-5.17-14.31-15.38-14.31-26.63,0-16.49,11.83-29.96,26.43-29.96Z" style="fill: #f6f5f2; stroke: #f6f5f2; stroke-width: .5px;"/>
  <path d="M37.14,17.13c4.75,0,9.36,1.17,12.99,3.32h0c.83.49,1.1,1.55.61,2.37h0c-.49.82-1.54,1.1-2.37.61h0c-3.1-1.83-7.08-2.84-11.23-2.84-4.68,0-8.91,1.25-11.96,3.27-3.05,2.01-4.91,4.76-4.91,7.76,0,2.02.87,4.02,2.54,5.78l.12.13c.54.69.47,1.69-.17,2.31h0c-.33.32-.76.48-1.19.48-.4,0-.8-.14-1.12-.41l-.13-.12h0c-2.28-2.39-3.5-5.22-3.5-8.17,0-4.03,2.31-7.66,5.99-10.27,3.68-2.61,8.75-4.22,14.33-4.22Z" style="fill: #f6f5f2; stroke: #f6f5f2; stroke-width: .5px;"/>
  <path d="M52.84,41.24h0c.87.23,1.41,1.07,1.27,1.94l-.04.17c-1.38,5.28-5.45,10.16-10.86,13.07h0c-3.02,1.62-6.22,2.47-9.28,2.52h0s-.25,0-.25,0c-1.53,0-3.03-.21-4.45-.62l-.6-.19c-.9-.31-1.39-1.29-1.07-2.2.29-.85,1.17-1.32,2.03-1.12l.17.05h0s.33.11.33.11c3.43,1.06,7.6.5,11.49-1.59l.43-.24c4.39-2.49,7.63-6.45,8.72-10.66l.05-.17c.31-.82,1.19-1.3,2.06-1.07Z" style="fill: #f6f5f2; stroke: #f6f5f2; stroke-width: .5px;"/>
  <path d="M47.18,48.95c.57-.67,1.56-.81,2.3-.3h0s.14.11.14.11c.67.57.81,1.56.3,2.3h0c-1.31,1.9-1.56,4.66-.66,7.47l.2.56.12.32c1.32,3.26,3.83,5.69,6.59,6.4l.17.05c.82.3,1.3,1.19,1.08,2.06h0c-.2.78-.9,1.3-1.67,1.3h-.25v-.02c-.06,0-.12-.02-.19-.04h0c-3.83-.99-7.21-4.21-8.93-8.44l-.16-.41c-1.53-4.09-1.23-8.18.86-11.21h0s.11-.14.11-.14Z" style="fill: #f6f5f2; stroke: #f6f5f2; stroke-width: .5px;"/>
  <path d="M40.81,85.66c4.3-.98,8.34-.13,11.46,2.42l.31.26h0s.35.31.35.31c3.41,3.2,5.09,8.29,4.59,13.77l-.06.55c-.1.88-.85,1.53-1.71,1.53h0c-.05,0-.13,0-.2-.01h0c-.95-.11-1.63-.97-1.52-1.92h0s.05-.45.05-.45c.41-4.46-.9-8.49-3.51-10.95l-.26-.24c-2.39-2.09-5.51-2.73-9.06-1.83h0c-.93.24-1.87-.32-2.1-1.25-.24-.93.32-1.87,1.25-2.1l.43-.1Z" style="fill: #f6f5f2; stroke: #f6f5f2; stroke-width: .5px;"/>
  <path d="M100.13.75c9.82,0,17.82,7.99,17.82,17.82v.57c0,.96-.78,1.73-1.73,1.73-.95,0-1.73-.77-1.73-1.73v-.57c0-7.91-6.44-14.35-14.36-14.35-7.92,0-14.35,6.44-14.35,14.35v93.51c0,8.66,7.05,15.71,15.71,15.71s15.71-7.05,15.71-15.71v-7.94c0-.96.78-1.73,1.73-1.73s1.73.77,1.73,1.73v7.94c0,10.57-8.6,19.17-19.17,19.17s-19.17-8.6-19.17-19.17V18.57c0-9.82,7.99-17.82,17.82-17.82Z" style="fill: #f6f5f2; stroke: #f6f5f2; stroke-width: .5px;"/>
  <path d="M121.88,74.49c11.57,0,21.03,8.57,21.03,19.15s-9.46,19.15-21.03,19.15c-1.07,0-2.13-.07-3.17-.22h0c-.94-.13-1.61-1.01-1.48-1.95.13-.95,1.01-1.6,1.95-1.48h0l.66.08c.67.07,1.35.1,2.03.1,9.71,0,17.57-7.06,17.57-15.68s-7.86-15.69-17.57-15.69c-.96,0-1.73-.78-1.73-1.73,0-.96.77-1.73,1.73-1.73Z" style="fill: #f6f5f2; stroke: #f6f5f2; stroke-width: .5px;"/>
  <path d="M129.74,36.04c14.6,0,26.43,13.47,26.43,29.96,0,11.25-5.48,21.46-14.31,26.63h0c-.27.16-.57.24-.87.24h0c-.59,0-1.17-.31-1.49-.85h0c-.48-.83-.2-1.88.62-2.37h0s.36-.22.36-.22c7.55-4.61,12.24-13.54,12.24-23.43,0-14.65-10.34-26.5-22.97-26.5-.54,0-1.07.02-1.58.06h0c-.96.08-1.79-.63-1.86-1.59-.07-.95.63-1.79,1.59-1.86h0c.61-.05,1.23-.07,1.86-.07Z" style="fill: #f6f5f2; stroke: #f6f5f2; stroke-width: .5px;"/>
  <path d="M120.07,17.13c5.58,0,10.65,1.61,14.33,4.22,3.68,2.61,5.99,6.24,5.99,10.27,0,2.76-1.07,5.42-3.08,7.71l-.41.45c-.34.35-.79.53-1.25.54h0s0,0,0,0h0c-.43,0-.86-.16-1.19-.48h0c-.69-.66-.72-1.75-.06-2.45h0s.3-.33.3-.33c1.47-1.67,2.24-3.55,2.24-5.45,0-3-1.85-5.75-4.9-7.76-3.05-2.01-7.28-3.26-11.96-3.26-3.89,0-7.64.89-10.64,2.51l-.59.33c-.82.49-1.88.21-2.37-.61-.49-.82-.21-1.88.61-2.37l.34-.2c3.58-2.02,8.05-3.12,12.65-3.12Z" style="fill: #f6f5f2; stroke: #f6f5f2; stroke-width: .5px;"/>
  <path d="M104.37,41.25c.92-.24,1.87.31,2.11,1.24h0c1.13,4.34,4.55,8.42,9.15,10.89l.38.2c3.91,1.99,8.06,2.45,11.44,1.29h0s.17-.05.17-.05c.85-.2,1.74.27,2.03,1.12.29.85-.11,1.77-.91,2.13l-.16.07c-1.59.55-3.29.82-5.05.82h-.6v-.02c-2.74-.09-5.6-.84-8.34-2.21l-.58-.3c-5.42-2.91-9.49-7.79-10.86-13.07l-.04-.17c-.14-.87.41-1.71,1.28-1.94h0Z" style="fill: #f6f5f2; stroke: #f6f5f2; stroke-width: .5px;"/>
  <path d="M107.74,48.65c.79-.54,1.87-.35,2.41.44h0s.19.29.19.29c1.85,2.9,2.13,6.71.8,10.54l-.14.38c-1.66,4.43-5.13,7.84-9.09,8.86h0c-.06.02-.12.03-.18.04v.02h-.25c-.77,0-1.48-.52-1.67-1.3l-.04-.17c-.13-.87.41-1.71,1.28-1.93l.27-.07c2.74-.82,5.21-3.33,6.45-6.65l.2-.57c.87-2.73.67-5.39-.53-7.28l-.13-.19c-.54-.79-.35-1.87.44-2.41Z" style="fill: #f6f5f2; stroke: #f6f5f2; stroke-width: .5px;"/>
  <path d="M104.95,88.08c3.22-2.64,7.43-3.45,11.89-2.31l.17.05c.83.3,1.3,1.18,1.08,2.05-.22.87-1.06,1.42-1.93,1.28l-.17-.04c-3.55-.9-6.67-.26-9.06,1.83h0c-2.87,2.51-4.28,6.85-3.72,11.63v.18c.03.88-.63,1.64-1.52,1.74h0c-.06,0-.12.01-.19.01-.87,0-1.61-.65-1.72-1.53h0c-.68-5.87,1.13-11.36,4.88-14.64l.31-.26Z" style="fill: #f6f5f2; stroke: #f6f5f2; stroke-width: .5px;"/>
</svg>