<?xml version="1.0" encoding="UTF-8"?>
<svg id="Layer_1" data-name="Layer 1" xmlns="http://www.w3.org/2000/svg" viewBox="0 0 133 132">
  <path d="M34.77,102.63c.88,0,1.6.71,1.6,1.6v7.96c0,4.27,1.51,8.28,4.25,11.29l.26.27c2.68,2.79,6.15,4.32,9.82,4.32,7.88,0,14.34-7.1,14.34-15.88v-3.08c0-.88.71-1.6,1.6-1.6s1.6.71,1.6,1.6v3.08c0,10.5-7.85,19.07-17.53,19.07-4.7,0-9.12-2-12.44-5.64h0c-3.28-3.6-5.09-8.37-5.09-13.44v-7.96c0-.88.71-1.6,1.6-1.6Z" style="fill: #2c65f4; stroke: #2c65f4; stroke-width: .5px;"/>
  <path d="M51.95.75c9,0,16.28,7.96,16.28,17.71,0,.88-.71,1.6-1.6,1.6-.88,0-1.6-.71-1.6-1.6,0-8.03-5.9-14.52-13.09-14.52-4.57,0-8.88,2.71-11.24,7.08h0c-.42.78-1.39,1.06-2.16.65-.78-.42-1.06-1.39-.65-2.16h0s.28-.5.28-.5C41.14,3.91,46.36.75,51.95.75Z" style="fill: #2c65f4; stroke: #2c65f4; stroke-width: .5px;"/>
  <path d="M32.08,74.65c.88,0,1.6.71,1.6,1.6s-.71,1.6-1.6,1.6c-8.84,0-16.03,7.12-16.03,15.86,0,8.74,7.19,15.86,16.03,15.86.61,0,1.23-.03,1.83-.1l.6-.08c.87-.14,1.69.47,1.82,1.34.12.82-.4,1.58-1.18,1.78l-.16.03c-.96.14-1.94.22-2.91.22-10.6,0-19.22-8.55-19.22-19.05,0-10.51,8.62-19.05,19.22-19.05Z" style="fill: #2c65f4; stroke: #2c65f4; stroke-width: .5px;"/>
  <path d="M24.91,36.12c.57,0,1.14.03,1.71.08h0c.88.07,1.53.85,1.46,1.72h0c-.08.88-.85,1.52-1.73,1.45h0c-.48-.04-.96-.06-1.43-.06-11.51,0-20.96,11.92-20.96,26.69,0,10.15,4.44,19.28,11.56,23.85h0c.74.48.95,1.47.48,2.21h0c-.3.47-.82.74-1.34.74h-.11c-.26-.03-.52-.11-.75-.26h0c-8.05-5.17-13.02-15.35-13.02-26.54,0-16.43,10.79-29.89,24.16-29.89Z" style="fill: #2c65f4; stroke: #2c65f4; stroke-width: .5px;"/>
  <path d="M33.72,17.17c4.22,0,8.33,1.11,11.62,3.14l.31.2h0s.13.1.13.1c.63.51.79,1.42.34,2.11h0c-.48.74-1.47.95-2.2.48h0c-2.81-1.82-6.43-2.83-10.19-2.83-4.26,0-8.12,1.27-10.9,3.31-2.78,2.04-4.48,4.83-4.48,7.88,0,2.1.81,4.15,2.37,5.94l.1.13c.47.66.36,1.58-.26,2.12h0c-.3.26-.67.39-1.05.39h-.11c-.35-.03-.7-.17-.97-.42l-.12-.13c-2.05-2.37-3.15-5.15-3.15-8.03,0-3.99,2.11-7.59,5.47-10.19,3.37-2.59,8-4.19,13.1-4.19Z" style="fill: #2c65f4; stroke: #2c65f4; stroke-width: .5px;"/>
  <path d="M82.56.75c9.68,0,17.52,8.58,17.52,19.07v7.95c0,.88-.71,1.6-1.6,1.6-.88,0-1.6-.71-1.6-1.6v-7.95c0-8.78-6.45-15.88-14.33-15.88-7.88,0-14.33,7.1-14.33,15.88v2.79c0,.88-.71,1.6-1.6,1.6s-1.6-.71-1.6-1.6v-2.79c0-10.5,7.84-19.07,17.52-19.07Z" style="fill: #2c65f4; stroke: #2c65f4; stroke-width: .5px;"/>
  <path d="M96.02,111.37c.88,0,1.6.71,1.6,1.6v.57c0,9.75-7.29,17.71-16.28,17.71-4.38,0-8.49-1.86-11.57-5.24h0c-3.04-3.35-4.71-7.78-4.71-12.48,0-.88.71-1.6,1.6-1.6s1.6.71,1.6,1.6c0,3.91,1.38,7.57,3.88,10.33l.23.25c2.44,2.55,5.61,3.95,8.98,3.95,7.2,0,13.09-6.49,13.09-14.52v-.57c0-.88.71-1.6,1.6-1.6Z" style="fill: #2c65f4; stroke: #2c65f4; stroke-width: .5px;"/>
  <path d="M115.33,27.49c.72-.37,1.61-.14,2.06.56l.36.58c1.74,2.93,2.66,6.25,2.66,9.67,0,6.83-3.73,13.18-9.72,16.56h0c-.09.05-.18.09-.27.12l.09.09h-.6c-.56,0-1.1-.29-1.39-.81h0c-.43-.77-.16-1.74.6-2.18l.46-.27c4.72-2.88,7.63-8.01,7.63-13.51,0-2.85-.76-5.61-2.21-8.04l-.3-.48c-.48-.74-.27-1.73.47-2.21l.14-.08Z" style="fill: #2c65f4; stroke: #2c65f4; stroke-width: .5px;"/>
  <path d="M98.68,19.41c4.12-.53,8.41.29,12.01,2.32l.14.09c.66.47.87,1.37.47,2.09h0c-.29.52-.83.81-1.39.81h-.25v-.03c-.18-.03-.36-.09-.53-.18h0c-3.1-1.75-6.83-2.42-10.37-1.89h0c-.88.13-1.68-.47-1.81-1.34-.13-.87.47-1.68,1.34-1.81l.4-.06Z" style="fill: #2c65f4; stroke: #2c65f4; stroke-width: .5px;"/>
  <path d="M124.95,46.48c.72-.38,1.61-.16,2.07.53l.33.5c3.34,5.25,5.17,11.79,5.17,18.49,0,16.42-10.78,29.88-24.15,29.88h0c-.57,0-1.14-.02-1.71-.07h0c-.88-.07-1.53-.85-1.45-1.73.07-.88.85-1.53,1.73-1.46h0c.48.04.96.06,1.43.06,11.51,0,20.96-11.92,20.96-26.69,0-6.11-1.66-12.04-4.67-16.77l-.29-.45c-.49-.74-.29-1.73.44-2.21l.14-.08Z" style="fill: #2c65f4; stroke: #2c65f4; stroke-width: .5px;"/>
  <path d="M112.84,92.16c.66-.47,1.58-.36,2.12.26h0s.37.45.37.45c1.81,2.27,2.77,4.88,2.77,7.58,0,3.99-2.1,7.59-5.47,10.19-3.24,2.49-7.64,4.07-12.51,4.19h.01s-.6.01-.6.01c-4.22,0-8.33-1.11-11.62-3.14l-.32-.2c-.74-.48-.95-1.47-.47-2.21.48-.74,1.46-.95,2.21-.47l.54.33c2.73,1.61,6.13,2.5,9.66,2.5,4.26,0,8.12-1.27,10.9-3.31,2.78-2.04,4.48-4.83,4.48-7.88,0-2.1-.81-4.15-2.37-5.94h0c-.58-.66-.5-1.67.16-2.25h0s.13-.1.13-.1Z" style="fill: #2c65f4; stroke: #2c65f4; stroke-width: .5px;"/>
  <path d="M66.64,43.44c12.04,0,21.83,9.8,21.83,21.83,0,8.44-4.82,16.05-12.37,19.68v9.1c0,4.31-3.51,7.82-7.82,7.82h-3.29c-4.32,0-7.82-3.51-7.82-7.82v-9.1c-7.55-3.63-12.37-11.24-12.37-19.68,0-12.04,9.8-21.83,21.83-21.83ZM66.64,46.63c-10.28,0-18.64,8.36-18.64,18.64,0,7.51,4.47,14.26,11.39,17.18h0s.11.05.11.05c.53.27.87.82.87,1.42v10.13c0,2.55,2.08,4.63,4.63,4.63h3.29c2.55,0,4.63-2.08,4.63-4.63v-10.13c0-.64.39-1.22.97-1.47h0s.64-.29.64-.29c6.56-3.06,10.75-9.62,10.75-16.89,0-10.28-8.36-18.64-18.64-18.64Z" style="fill: #d9f74f; stroke: #d9f74f; stroke-width: .5px;"/>
  <path d="M46.12,36.75c.7-.4,1.6-.23,2.09.44h0l3.17,4.36.09.14c.41.7.23,1.61-.44,2.09h0c-.28.2-.61.3-.94.3h-.6l.09-.09c-.24-.08-.47-.22-.65-.42l-.12-.15-3.17-4.35c-.52-.71-.36-1.71.35-2.23h0s.14-.09.14-.09Z" style="fill: #d9f74f; stroke: #d9f74f; stroke-width: .5px;"/>
  <path d="M33.21,54.41c.27-.84,1.17-1.29,2.01-1.02h0l5.12,1.67.15.06c.74.33,1.13,1.17.87,1.96-.22.67-.85,1.1-1.52,1.1-.16,0-.33-.03-.49-.08h0s-5.12-1.67-5.12-1.67c-.84-.27-1.3-1.17-1.02-2.01h0Z" style="fill: #d9f74f; stroke: #d9f74f; stroke-width: .5px;"/>
  <path d="M98.05,53.38c.78-.26,1.63.13,1.95.87l.06.15h0s0,0,0,0c.25.79-.13,1.62-.87,1.95l-.15.06-5.12,1.67h0c-.16.05-.33.08-.5.08-.63,0-1.22-.38-1.47-.98l-.05-.12h0c-.27-.84.18-1.74,1.02-2.01h0l5.11-1.67h0Z" style="fill: #d9f74f; stroke: #d9f74f; stroke-width: .5px;"/>
  <path d="M85.06,37.19c.52-.71,1.52-.87,2.23-.35h0c.67.48.85,1.4.44,2.09l-.09.14-3.17,4.35h0c-.2.28-.48.47-.78.57l.09.09h-.6c-.32,0-.65-.1-.94-.3h0c-.72-.52-.87-1.52-.36-2.23l3.17-4.36Z" style="fill: #d9f74f; stroke: #d9f74f; stroke-width: .5px;"/>
  <path d="M66.64,29.93c.88,0,1.6.71,1.6,1.6v5.47c0,.88-.71,1.59-1.6,1.59s-1.6-.71-1.6-1.59v-5.47c0-.88.71-1.6,1.6-1.6Z" style="fill: #d9f74f; stroke: #d9f74f; stroke-width: .5px;"/>
  <path d="M60.94,72.22c.57-.6,1.49-.67,2.13-.18l.12.1h0s4.53,4.26,4.53,4.26l.11.12c.53.61.52,1.53-.04,2.14h0c-.29.31-.67.47-1.06.5h0s-.1,0-.1,0c-.39,0-.78-.14-1.09-.43l-4.53-4.26h0c-.64-.61-.67-1.61-.07-2.26h0Z" style="fill: #d9f74f; stroke: #d9f74f; stroke-width: .5px;"/>
  <path d="M70.08,72.16c.64-.61,1.65-.57,2.25.07l.11.12c.49.64.43,1.57-.18,2.13h0s-4.53,4.26-4.53,4.26h0c-.31.29-.7.43-1.09.43h-.25v-.03c-.34-.05-.66-.21-.91-.48h0c-.6-.64-.57-1.65.07-2.26l4.53-4.26Z" style="fill: #d9f74f; stroke: #d9f74f; stroke-width: .5px;"/>
</svg>