<?xml version="1.0" encoding="UTF-8"?>
<svg id="Layer_1" data-name="Layer 1" xmlns="http://www.w3.org/2000/svg" viewBox="0 0 25 25">
  <path d="M10,24.38c-.87,0-1.69-.37-2.3-1.04-.61-.67-.94-1.54-.94-2.48v-1.44c0-.2.16-.36.36-.36s.36.16.36.36v1.44c0,.75.27,1.47.75,2,.48.52,1.11.81,1.77.81,1.39,0,2.53-1.26,2.53-2.81v-.56c0-.2.16-.36.36-.36s.36.16.36.36v.56c0,1.94-1.46,3.52-3.25,3.52h0Z" style="fill: #0b1427;"/>
  <path d="M7.11,19.17c.14,0,.25.11.25.25v1.44c0,.78.28,1.52.78,2.07.5.54,1.16.84,1.86.84,1.46,0,2.64-1.31,2.64-2.92v-.56c0-.14.11-.25.25-.25s.25.11.25.25v.56c0,1.88-1.4,3.41-3.13,3.41-.84,0-1.63-.36-2.22-1.01-.58-.64-.91-1.5-.91-2.4v-1.44c0-.14.11-.25.25-.25M7.11,18.94c-.26,0-.48.21-.48.48v1.44c0,.97.35,1.87.97,2.56.64.7,1.48,1.08,2.39,1.08,1.85,0,3.36-1.63,3.36-3.64v-.56c0-.26-.21-.48-.48-.48s-.48.21-.48.48v.56c0,1.48-1.08,2.69-2.41,2.69-.64,0-1.24-.28-1.69-.78-.47-.51-.72-1.19-.72-1.92v-1.44c0-.26-.21-.48-.48-.48h0Z" style="fill: #0b1427;"/>
  <path d="M12.87,4.25c-.2,0-.36-.16-.36-.36,0-1.41-1.03-2.56-2.3-2.56-.81,0-1.56.48-1.97,1.24-.06.12-.18.19-.31.19-.06,0-.12-.02-.17-.05-.08-.05-.15-.12-.18-.21-.03-.09-.02-.19.03-.28.54-1,1.54-1.62,2.61-1.62,1.67,0,3.02,1.47,3.02,3.28,0,.2-.16.36-.36.36Z" style="fill: #0b1427;"/>
  <path d="M10.22.73c1.6,0,2.9,1.42,2.9,3.16,0,.14-.11.25-.25.25s-.25-.11-.25-.25c0-1.47-1.08-2.67-2.42-2.67-.84,0-1.64.5-2.07,1.3-.05.08-.13.13-.21.13-.04,0-.08,0-.12-.03-.12-.06-.16-.21-.1-.33.52-.97,1.48-1.57,2.5-1.57M10.22.5c-1.11,0-2.15.64-2.71,1.68-.12.23-.04.51.19.64.07.04.15.05.22.05.18,0,.34-.09.41-.25.39-.73,1.11-1.18,1.87-1.18,1.2,0,2.19,1.1,2.19,2.44,0,.26.21.48.48.48s.48-.21.48-.48c0-1.87-1.4-3.39-3.13-3.39Z" style="fill: #0b1427;"/>
  <path d="M6.62,21.03c-1.96,0-3.55-1.58-3.55-3.52s1.6-3.52,3.55-3.52c.2,0,.36.16.36.36s-.16.36-.36.36c-1.57,0-2.83,1.26-2.83,2.8s1.27,2.8,2.83,2.8c.15,0,.29,0,.43-.03h0c.22,0,.37.13.4.3.03.19-.11.38-.3.41-.18.03-.36.04-.54.04Z" style="fill: #0b1427;"/>
  <path d="M6.62,14.11c.14,0,.25.11.25.25s-.11.25-.25.25c-1.63,0-2.95,1.3-2.95,2.92s1.32,2.92,2.95,2.92c.15,0,.3,0,.45-.03h.04c.12,0,.22.08.24.21.02.13-.07.26-.21.28-.17.02-.35.04-.52.04-1.9,0-3.44-1.53-3.44-3.41s1.54-3.41,3.44-3.41M6.62,13.88c-2.02,0-3.67,1.63-3.67,3.64s1.64,3.64,3.67,3.64c.18,0,.38-.02.55-.04.12-.02.24-.08.31-.18.08-.1.11-.23.08-.35-.04-.23-.24-.41-.47-.41h-.07c-.14.02-.28.04-.41.04-1.5,0-2.72-1.2-2.72-2.69s1.22-2.69,2.72-2.69c.26,0,.48-.21.48-.48s-.21-.48-.48-.48h0Z" style="fill: #0b1427;"/>
  <path d="M3.46,17.42c-.07,0-.14-.02-.19-.05-1.47-.94-2.39-2.81-2.39-4.87,0-3.02,2-5.48,4.44-5.48.11,0,.21,0,.31.02.09,0,.18.05.25.13.06.08.09.17.08.26-.02.18-.17.33-.36.33-.12,0-.2-.02-.28-.02-2.06,0-3.72,2.13-3.72,4.77,0,1.81.79,3.45,2.06,4.26.08.05.14.13.15.22.02.09,0,.19-.05.27-.07.1-.18.16-.3.16h0Z" style="fill: #0b1427;"/>
  <path d="M5.32,7.13c.1,0,.21,0,.31.02.13,0,.23.13.22.26,0,.13-.12.22-.25.22h-.02c-.08,0-.18,0-.26,0-2.12,0-3.84,2.19-3.84,4.88,0,1.85.81,3.52,2.11,4.36.12.07.15.22.08.34-.05.07-.12.12-.21.12-.05,0-.09-.02-.13-.04-1.44-.93-2.33-2.76-2.33-4.77,0-2.96,1.94-5.36,4.33-5.36M5.32,6.9c-2.51,0-4.56,2.51-4.56,5.6,0,2.1.94,3.99,2.44,4.96.08.05.17.08.25.08.16,0,.31-.08.4-.21.07-.11.09-.23.06-.35-.03-.12-.1-.23-.21-.3-1.24-.8-2-2.39-2-4.16,0-2.56,1.62-4.65,3.61-4.65.08,0,.16,0,.25,0h.04c.25,0,.45-.18.48-.43,0-.12-.03-.25-.11-.35-.08-.1-.2-.15-.32-.17-.11,0-.21-.02-.32-.02Z" style="fill: #0b1427;"/>
  <path d="M4.34,7.88c-.11,0-.2-.05-.27-.12-.38-.45-.59-.96-.59-1.5,0-1.47,1.54-2.67,3.43-2.67.8,0,1.58.22,2.2.61.17.11.21.33.11.5-.07.1-.18.16-.3.16-.07,0-.14-.02-.19-.06-.5-.32-1.14-.5-1.81-.5-1.5,0-2.72.87-2.72,1.96,0,.36.15.72.41,1.03.13.15.12.38-.04.51-.07.05-.15.09-.24.09h0Z" style="fill: #0b1427;"/>
  <path d="M6.92,3.7c.78,0,1.54.21,2.13.6.12.08.15.22.07.34-.05.07-.12.12-.21.12-.05,0-.09-.02-.13-.04-.51-.34-1.18-.52-1.87-.52-1.56,0-2.83.93-2.83,2.07,0,.39.15.78.44,1.11.09.1.08.25-.02.35-.05.04-.1.06-.16.06-.07,0-.14-.03-.18-.08-.37-.42-.56-.91-.56-1.43,0-1.41,1.49-2.56,3.32-2.56M6.92,3.47c-1.96,0-3.55,1.25-3.55,2.79,0,.57.21,1.11.61,1.57.09.11.22.16.36.16.12,0,.22-.04.31-.12.2-.17.21-.47.05-.67-.25-.29-.38-.62-.38-.95,0-1.01,1.17-1.84,2.6-1.84.64,0,1.27.17,1.74.48.08.05.17.08.26.08.16,0,.31-.08.4-.21.14-.22.08-.51-.14-.65-.63-.41-1.44-.64-2.26-.64Z" style="fill: #0b1427;"/>
  <path d="M18.65,5.93c-.2,0-.36-.16-.36-.36v-1.44c0-1.55-1.14-2.81-2.53-2.81s-2.53,1.26-2.53,2.81v.51c0,.2-.16.36-.36.36s-.36-.16-.36-.36v-.51c0-1.94,1.46-3.52,3.25-3.52s3.24,1.58,3.24,3.52v1.44c0,.2-.16.36-.36.36h0Z" style="fill: #0b1427;"/>
  <path d="M15.76.73c1.73,0,3.12,1.53,3.12,3.41v1.44c0,.14-.11.25-.25.25s-.25-.11-.25-.25v-1.44c0-1.61-1.18-2.92-2.64-2.92s-2.64,1.31-2.64,2.92v.51c0,.14-.11.25-.25.25s-.25-.11-.25-.25v-.51c0-1.88,1.4-3.41,3.12-3.41M15.76.5c-1.85,0-3.35,1.63-3.35,3.64v.51c0,.26.21.48.48.48s.48-.21.48-.48v-.51c0-1.48,1.08-2.69,2.41-2.69s2.41,1.2,2.41,2.69v1.44c0,.26.21.48.48.48s.48-.21.48-.48v-1.44c0-2-1.5-3.64-3.35-3.64h-.02Z" style="fill: #0b1427;"/>
  <path d="M15.54,24.38c-.81,0-1.57-.35-2.15-.97-.56-.62-.88-1.44-.88-2.3,0-.2.16-.36.36-.36s.36.16.36.36c0,.69.25,1.34.68,1.83.43.48,1.01.74,1.61.74,1.27,0,2.3-1.15,2.3-2.56v-.1c0-.2.16-.36.36-.36s.36.16.36.36v.1c0,1.8-1.35,3.28-3.02,3.28h0Z" style="fill: #0b1427;"/>
  <path d="M18.2,20.75c.14,0,.25.11.25.25v.11c0,1.74-1.3,3.16-2.9,3.16-.78,0-1.51-.33-2.06-.94-.54-.6-.84-1.39-.84-2.23,0-.14.11-.25.25-.25s.25.11.25.25c0,.72.25,1.39.71,1.9.45.5,1.06.78,1.7.78,1.34,0,2.42-1.2,2.42-2.67v-.11c0-.14.11-.25.25-.25M18.2,20.52c-.26,0-.48.21-.48.48v.11c0,1.35-.98,2.44-2.19,2.44-.58,0-1.12-.25-1.53-.7-.42-.47-.65-1.08-.65-1.74,0-.26-.21-.48-.48-.48s-.48.21-.48.48c0,.9.32,1.74.9,2.39.59.65,1.39,1.01,2.23,1.01,1.73,0,3.13-1.52,3.13-3.39v-.11c0-.26-.21-.48-.48-.48h0Z" style="fill: #0b1427;"/>
  <path d="M20.71,10.59c-.13,0-.25-.07-.31-.18-.1-.18-.04-.39.14-.49.88-.5,1.43-1.43,1.43-2.43,0-.54-.15-1.06-.45-1.5-.11-.17-.06-.39.11-.5.06-.04.12-.06.19-.06.12,0,.24.06.3.16.37.57.56,1.22.56,1.9,0,1.26-.69,2.43-1.8,3.06-.05.03-.12.05-.18.05h0Z" style="fill: #0b1427;"/>
  <path d="M21.82,5.53c.08,0,.16.04.21.12.35.54.54,1.18.54,1.83,0,1.22-.67,2.36-1.73,2.96-.04.02-.08.03-.12.03-.08,0-.17-.05-.21-.12-.07-.12-.02-.27.09-.33.92-.52,1.49-1.49,1.49-2.53,0-.56-.16-1.1-.46-1.57-.08-.12-.04-.26.07-.34.04-.02.08-.04.13-.04M21.82,5.3c-.09,0-.18.02-.25.08-.22.14-.28.44-.14.65.28.43.42.93.42,1.44,0,.96-.52,1.86-1.37,2.33-.23.13-.31.42-.18.64.08.15.25.24.41.24.08,0,.16-.02.23-.06,1.14-.64,1.86-1.86,1.86-3.16,0-.7-.2-1.37-.58-1.96-.08-.14-.24-.21-.4-.21h0Z" style="fill: #0b1427;"/>
  <path d="M20.71,5.09c-.06,0-.12-.02-.18-.05-.42-.24-.91-.37-1.41-.37-.14,0-.28,0-.42.03h0c-.22,0-.37-.13-.4-.3-.02-.09,0-.19.07-.27.06-.08.14-.13.24-.14.18-.02.35-.04.53-.04.62,0,1.23.16,1.77.46.08.05.15.12.17.21.02.09.02.19-.03.28-.06.12-.18.18-.31.18h0Z" style="fill: #0b1427;"/>
  <path d="M19.13,4.08c.59,0,1.19.15,1.7.45.12.07.16.21.09.33-.05.08-.13.12-.21.12-.04,0-.08,0-.12-.03-.45-.25-.95-.38-1.47-.38-.15,0-.29,0-.44.03h-.04c-.12,0-.22-.08-.24-.21-.02-.13.07-.26.21-.28.17-.02.34-.04.51-.04M19.13,3.85c-.18,0-.37.02-.54.04-.12.02-.24.08-.31.18-.08.1-.11.23-.08.35.04.23.24.41.47.41h.07c.13-.02.27-.04.41-.04.48,0,.94.12,1.35.35.07.04.15.06.23.06.17,0,.33-.09.41-.24.13-.23.05-.51-.18-.64-.55-.31-1.17-.48-1.82-.48h0Z" style="fill: #0b1427;"/>
  <path d="M20.43,17.98c-.11,0-.21,0-.31-.02-.09,0-.18-.05-.25-.13-.06-.08-.09-.17-.08-.26.02-.18.17-.33.35-.33.12,0,.2.02.28.02,2.06,0,3.72-2.13,3.72-4.77,0-1.13-.31-2.22-.89-3.08-.11-.16-.06-.38.1-.5.06-.04.13-.06.2-.06.12,0,.23.06.3.16.65.97,1.01,2.21,1.01,3.48,0,3.02-2,5.48-4.44,5.48h.02Z" style="fill: #0b1427;"/>
  <path d="M23.57,8.97c.08,0,.15.04.2.11.64.96.99,2.17.99,3.42,0,2.96-1.94,5.36-4.33,5.36-.1,0-.21,0-.31-.02-.13,0-.23-.13-.22-.26,0-.13.12-.22.24-.22h.02c.08,0,.18,0,.26,0,2.12,0,3.84-2.19,3.84-4.88,0-1.15-.32-2.26-.91-3.15-.08-.12-.05-.26.07-.34.04-.03.09-.04.14-.04M23.57,8.74c-.09,0-.18.03-.26.08-.21.15-.28.44-.13.66.56.84.87,1.91.87,3.02,0,2.56-1.62,4.65-3.61,4.65-.08,0-.16,0-.25,0h-.04c-.25,0-.45.18-.47.43,0,.12.03.25.11.35.08.1.2.15.32.17.11,0,.21.02.32.02,2.51,0,4.56-2.51,4.56-5.6,0-1.29-.36-2.55-1.03-3.54-.08-.13-.24-.21-.39-.21h0Z" style="fill: #0b1427;"/>
  <path d="M18.84,21.41c-.81,0-1.58-.22-2.2-.61-.17-.11-.21-.33-.11-.5.07-.1.18-.16.3-.16.07,0,.14.02.19.06.5.32,1.14.5,1.81.5,1.5,0,2.72-.88,2.72-1.96,0-.36-.15-.72-.41-1.03-.13-.15-.12-.38.04-.51.06-.05.15-.08.24-.08.11,0,.2.05.27.12.38.45.59.96.59,1.5,0,1.47-1.54,2.67-3.43,2.67h0Z" style="fill: #0b1427;"/>
  <path d="M21.41,17.22c.07,0,.14.03.18.08.37.42.56.91.56,1.43,0,1.41-1.49,2.56-3.32,2.56-.78,0-1.54-.21-2.13-.6-.12-.08-.15-.22-.07-.34.05-.07.12-.12.21-.12.05,0,.09.02.13.04.51.34,1.18.52,1.87.52,1.56,0,2.83-.93,2.83-2.07,0-.39-.15-.78-.44-1.11-.08-.1-.08-.25.02-.35.05-.04.1-.06.16-.06M21.41,16.99c-.12,0-.22.04-.31.12-.2.17-.21.47-.05.67.25.29.38.62.38.95,0,1.01-1.17,1.84-2.6,1.84-.64,0-1.27-.17-1.74-.48-.08-.05-.17-.08-.25-.08-.16,0-.31.08-.4.21-.07.11-.09.23-.07.35.02.12.1.23.21.3.63.41,1.44.64,2.26.64,1.96,0,3.55-1.25,3.55-2.79,0-.57-.21-1.11-.61-1.57-.09-.11-.22-.16-.36-.16Z" style="fill: #0b1427;"/>
  <path d="M12.58,19.07c-.82,0-1.49-.67-1.49-1.49v-1.6c-1.36-.68-2.24-2.08-2.24-3.61,0-2.22,1.8-4.02,4.02-4.02s4.02,1.8,4.02,4.02c0,1.53-.87,2.93-2.24,3.61v1.6c0,.82-.67,1.49-1.49,1.49h-.6.02ZM12.87,9.06c-1.83,0-3.31,1.48-3.31,3.31,0,1.34.79,2.53,2.02,3.05.13.05.22.18.22.33v1.83c0,.42.35.77.77.77h.6c.42,0,.77-.35.77-.77v-1.83c0-.15.08-.28.22-.33,1.23-.52,2.02-1.71,2.02-3.05,0-1.83-1.48-3.31-3.31-3.31Z" style="fill: #0b1427;"/>
  <path d="M12.87,8.46c2.16,0,3.91,1.75,3.91,3.91,0,1.52-.88,2.89-2.24,3.54v1.67c0,.75-.61,1.37-1.37,1.37h-.6c-.76,0-1.37-.61-1.37-1.37v-1.67c-1.37-.64-2.24-2.02-2.24-3.54,0-2.16,1.75-3.91,3.91-3.91M12.58,18.46h.6c.49,0,.88-.4.88-.88v-1.83c0-.1.06-.18.15-.22,1.27-.54,2.09-1.77,2.09-3.15,0-1.89-1.53-3.42-3.42-3.42s-3.42,1.53-3.42,3.42c0,1.38.82,2.62,2.09,3.15.09.04.15.12.15.22v1.83c0,.48.4.88.88.88M12.87,8.23c-2.28,0-4.14,1.86-4.14,4.14,0,1.54.87,2.97,2.24,3.68v1.53c0,.88.72,1.6,1.6,1.6h.6c.88,0,1.6-.72,1.6-1.6v-1.53c1.37-.71,2.24-2.13,2.24-3.68,0-2.28-1.86-4.14-4.14-4.14h-.02ZM12.58,18.23c-.36,0-.65-.29-.65-.65v-1.83c0-.19-.12-.36-.29-.44-1.18-.5-1.95-1.66-1.95-2.94,0-1.76,1.43-3.19,3.19-3.19s3.19,1.43,3.19,3.19c0,1.29-.77,2.44-1.95,2.94-.18.08-.29.25-.29.44v1.83c0,.36-.29.65-.65.65h-.6Z" style="fill: #0b1427;"/>
  <path d="M9.88,8.6c-.12,0-.22-.05-.29-.15l-.58-.79c-.12-.16-.08-.38.08-.5.06-.05.14-.07.21-.07.12,0,.22.05.29.15l.58.79c.05.08.08.17.06.27-.02.09-.07.18-.15.23-.06.05-.14.07-.21.07Z" style="fill: #0b1427;"/>
  <path d="M9.3,7.21c.08,0,.15.04.2.1l.58.79c.08.11.05.26-.05.34-.05.03-.09.05-.15.05-.08,0-.15-.04-.2-.1l-.58-.79c-.08-.11-.05-.26.05-.34.05-.03.09-.05.15-.05ZM9.3,6.98c-.1,0-.2.03-.28.09-.1.08-.17.18-.19.31-.02.12,0,.25.08.35l.58.79c.09.12.23.19.38.19.1,0,.2-.03.28-.09.21-.15.26-.45.11-.66l-.58-.79c-.09-.12-.23-.19-.38-.19Z" style="fill: #0b1427;"/>
  <path d="M8.01,11.15l-.09-.02-.93-.3c-.19-.06-.29-.26-.23-.45.05-.15.18-.25.35-.25h.02l.09.02.93.3c.09.03.16.09.21.18.05.08.05.18.02.28-.05.15-.18.25-.34.25h-.02Z" style="fill: #0b1427;"/>
  <path d="M7.1,10.25s.05,0,.08.02l.93.3c.13.04.2.18.15.31-.03.1-.13.17-.23.17-.02,0-.05,0-.08-.02l-.93-.3c-.13-.04-.2-.18-.15-.31.03-.1.13-.17.23-.17ZM7.1,10.02c-.21,0-.38.13-.45.33-.08.25.05.51.31.6l.93.3s.1.02.15.02c.21,0,.38-.13.45-.33.08-.25-.05-.51-.31-.6l-.93-.3s-.1-.02-.15-.02Z" style="fill: #0b1427;"/>
  <path d="M17.73,11.15c-.15,0-.29-.1-.34-.25-.03-.09-.02-.19.02-.28.05-.08.12-.15.21-.18l.94-.31.09-.02c.15,0,.29.1.34.25.03.09.02.18-.02.28-.05.08-.12.15-.21.18l-.94.31-.09.02Z" style="fill: #0b1427;"/>
  <path d="M18.65,10.25c.1,0,.2.07.23.17.04.13-.03.27-.15.31l-.93.3s-.05.02-.08.02c-.1,0-.2-.07-.23-.17-.04-.13.03-.27.15-.31l.93-.3s.05-.02.08-.02ZM18.65,10.02c-.05,0-.1,0-.15.02l-.93.3c-.12.04-.21.12-.28.24-.05.12-.07.24-.03.36.06.2.25.33.45.33.05,0,.1,0,.15-.02l.93-.3c.12-.04.21-.12.28-.24.05-.12.07-.24.03-.36-.06-.2-.25-.33-.45-.33Z" style="fill: #0b1427;"/>
  <path d="M15.87,8.6c-.08,0-.15-.02-.21-.07-.08-.05-.13-.14-.15-.24-.02-.09,0-.19.06-.27l.58-.79c.07-.09.18-.15.29-.15.08,0,.15.02.21.07.08.05.13.14.15.24.02.09,0,.19-.06.27l-.58.79c-.07.09-.18.15-.29.15h0Z" style="fill: #0b1427;"/>
  <path d="M16.45,7.21s.1.02.15.05c.11.08.13.23.05.34l-.58.79c-.05.07-.12.1-.2.1-.05,0-.1-.02-.15-.05-.11-.08-.13-.23-.05-.34l.58-.79c.05-.07.12-.1.2-.1ZM16.45,6.98c-.15,0-.29.08-.38.2l-.58.79c-.15.21-.11.51.11.66.08.06.18.09.28.09.15,0,.29-.08.38-.19l.58-.79c.08-.1.11-.23.08-.35-.02-.12-.08-.24-.19-.31-.08-.06-.18-.09-.28-.09h0Z" style="fill: #0b1427;"/>
  <path d="M12.87,7.61c-.2,0-.36-.16-.36-.36v-.99c0-.2.16-.36.36-.36s.36.16.36.36v.99c0,.2-.16.36-.36.36Z" style="fill: #0b1427;"/>
  <path d="M12.87,6.01c.14,0,.25.11.25.25v.99c0,.14-.11.25-.25.25s-.25-.11-.25-.25v-.99c0-.14.11-.25.25-.25ZM12.87,5.78c-.26,0-.48.21-.48.48v.99c0,.26.21.48.48.48s.48-.21.48-.48v-.99c0-.26-.21-.48-.48-.48Z" style="fill: #0b1427;"/>
  <path d="M12.87,14.95c-.09,0-.18-.03-.25-.1l-.82-.77c-.07-.07-.11-.15-.12-.25,0-.1.03-.18.1-.25.07-.07.16-.12.26-.12.09,0,.18.03.25.1l.82.77c.15.14.15.36.02.51-.07.07-.16.12-.26.12Z" style="fill: #0b1427;"/>
  <path d="M12.05,13.58c.06,0,.12.02.17.07l.82.77c.1.09.1.25,0,.35-.05.05-.12.08-.18.08s-.12-.02-.17-.07l-.82-.77c-.1-.09-.1-.25,0-.35.05-.05.12-.08.18-.08ZM12.05,13.35c-.13,0-.25.05-.35.15-.18.19-.17.49.02.67l.82.77c.09.08.21.13.32.13.13,0,.25-.05.35-.15.18-.19.17-.49-.02-.67l-.82-.77c-.09-.08-.21-.13-.32-.13Z" style="fill: #0b1427;"/>
  <path d="M12.87,14.95c-.1,0-.19-.04-.26-.12-.07-.07-.1-.16-.1-.25s.05-.18.12-.25l.82-.77c.07-.06.15-.1.25-.1.1,0,.19.04.26.12.07.07.1.16.1.25s-.05.18-.12.25l-.82.77c-.07.06-.15.1-.25.1Z" style="fill: #0b1427;"/>
  <path d="M13.69,13.58c.06,0,.13.02.18.08.09.1.08.25,0,.35l-.82.77s-.11.07-.17.07-.13-.02-.18-.08c-.09-.1-.08-.25,0-.35l.82-.77s.11-.07.17-.07ZM13.69,13.35c-.12,0-.24.05-.32.13l-.82.77c-.19.18-.2.48-.02.67.09.09.21.15.35.15.12,0,.24-.05.32-.13l.82-.78c.19-.18.2-.48.02-.67-.09-.09-.21-.15-.35-.15h0Z" style="fill: #0b1427;"/>
</svg>