<?xml version="1.0" encoding="UTF-8"?>
<svg id="Layer_1" data-name="Layer 1" xmlns="http://www.w3.org/2000/svg" xmlns:xlink="http://www.w3.org/1999/xlink" viewBox="0 0 25 25">
  <defs>
    <clipPath id="clippath">
      <rect y=".5" width="25" height="24" style="fill: none;"/>
    </clipPath>
  </defs>
  <g style="clip-path: url(#clippath);">
    <g>
      <path d="M4.27,8.59c-1.27,0-2.29-1.02-2.29-2.27s1.03-2.27,2.29-2.27,2.29,1.02,2.29,2.27-1.03,2.27-2.29,2.27ZM4.27,4.76c-.86,0-1.56.7-1.56,1.56s.7,1.56,1.56,1.56,1.56-.7,1.56-1.56-.7-1.56-1.56-1.56Z" style="fill: #0b1427;"/>
      <path d="M4.27,4.16c1.2,0,2.18.97,2.18,2.15s-.97,2.15-2.18,2.15-2.18-.97-2.18-2.15.97-2.15,2.18-2.15ZM4.27,7.99c.93,0,1.67-.75,1.67-1.67s-.75-1.67-1.67-1.67-1.67.75-1.67,1.67.75,1.67,1.67,1.67ZM4.27,3.93c-1.33,0-2.41,1.07-2.41,2.38s1.08,2.38,2.41,2.38,2.41-1.07,2.41-2.38-1.08-2.38-2.41-2.38ZM4.27,7.76c-.79,0-1.44-.64-1.44-1.44s.64-1.44,1.44-1.44,1.44.64,1.44,1.44-.64,1.44-1.44,1.44Z" style="fill: #0b1427;"/>
      <path d="M3.38,22.74c-.8,0-1.45-.64-1.45-1.41v-9.22c0-.2.17-.36.37-.36s.37.16.37.36v9.22c0,.38.32.7.72.7s.72-.31.72-.7v-4.49c0-.2.17-.36.37-.36s.37.16.37.36v4.49c0,.78-.65,1.41-1.45,1.41h-.02Z" style="fill: #0b1427;"/>
      <path d="M2.3,11.86c.14,0,.25.11.25.25v9.22c0,.44.37.81.83.81s.83-.36.83-.81v-4.49c0-.14.11-.25.25-.25s.25.11.25.25v4.49c0,.71-.6,1.3-1.33,1.3s-1.33-.58-1.33-1.3v-9.22c0-.14.11-.25.25-.25M2.3,11.63c-.27,0-.49.21-.49.48v9.22c0,.84.7,1.53,1.56,1.53s1.56-.68,1.56-1.53v-4.49c0-.26-.22-.48-.49-.48s-.49.21-.49.48v4.49c0,.32-.27.58-.6.58s-.6-.26-.6-.58v-9.22c0-.26-.22-.48-.49-.48h.02Z" style="fill: #0b1427;"/>
      <path d="M7.54,17.33c-.68,0-1.25-.54-1.27-1.21v-4.05c0-.2.17-.36.37-.36s.37.16.37.36v4.02c0,.28.25.52.54.52.14,0,.28-.05.38-.16.1-.1.17-.24.17-.38v-4.36c0-.94-.71-1.65-1.65-1.65h-3.93c-.94,0-1.65.71-1.65,1.65v4.36c0,.15.06.28.17.38.1.11.24.16.38.16.29,0,.53-.24.54-.52v-4.02c0-.2.17-.36.37-.36s.37.16.37.36v3.99c-.03.72-.6,1.26-1.27,1.26-.34,0-.67-.14-.9-.38-.24-.24-.37-.55-.37-.89v-4.36c0-1.33,1.05-2.36,2.39-2.36h3.91c1.34,0,2.39,1.04,2.39,2.36v4.36c0,.34-.13.65-.38.89-.24.24-.57.38-.9.38h0Z" style="fill: #0b1427;"/>
      <path d="M6.42,9.46c1.27,0,2.27.99,2.27,2.25v4.36c0,.31-.12.59-.34.81-.21.21-.51.34-.82.34-.61,0-1.13-.49-1.16-1.1v-4.04c0-.14.11-.25.25-.25s.25.11.25.25v4.02c.02.35.31.64.66.64.17,0,.34-.07.46-.19.13-.12.2-.29.2-.47v-4.36c0-1-.76-1.76-1.77-1.76h-3.93c-1.01,0-1.77.76-1.77,1.76v4.36c0,.18.07.34.2.47.13.12.29.19.46.19.35,0,.64-.28.66-.64v-4.02c0-.14.11-.25.25-.25s.25.11.25.25v4.04c-.02.61-.54,1.1-1.16,1.1-.31,0-.61-.12-.82-.34-.22-.21-.34-.51-.34-.8v-4.36c0-1.26,1-2.25,2.27-2.25h3.91M6.42,9.23h-3.91c-1.41,0-2.51,1.09-2.51,2.48v4.36c0,.37.14.71.41.97.26.26.62.41.99.41.74,0,1.36-.59,1.39-1.32v-4.06c0-.26-.22-.48-.49-.48s-.49.21-.49.48v4.02c0,.22-.2.41-.42.41-.11,0-.21-.05-.3-.12-.09-.08-.13-.19-.13-.31v-4.36c0-.87.66-1.53,1.53-1.53h3.91c.87,0,1.53.66,1.53,1.53v4.36c0,.12-.05.22-.13.31-.08.08-.19.12-.3.12-.23,0-.42-.18-.42-.41v-4.01c0-.26-.22-.48-.49-.48s-.49.21-.49.48v4.07c.03.71.65,1.3,1.39,1.3.37,0,.73-.15.99-.41.26-.26.41-.61.41-.97v-4.36c0-1.39-1.1-2.48-2.51-2.48h.02Z" style="fill: #0b1427;"/>
      <path d="M5.54,22.74c-.8,0-1.45-.64-1.45-1.41,0-.2.17-.36.37-.36s.37.16.37.36c0,.38.32.7.72.7s.72-.31.72-.7v-9.22c0-.2.17-.36.37-.36s.37.16.37.36v9.22c0,.78-.65,1.41-1.45,1.41h-.02Z" style="fill: #0b1427;"/>
      <path d="M6.63,11.86c.14,0,.25.11.25.25v9.22c0,.71-.6,1.3-1.33,1.3s-1.33-.58-1.33-1.3c0-.14.11-.25.25-.25s.25.11.25.25c0,.44.37.81.83.81s.83-.36.83-.81v-9.22c0-.14.11-.25.25-.25M6.63,11.63c-.27,0-.49.21-.49.48v9.22c0,.32-.27.58-.6.58s-.6-.26-.6-.58c0-.26-.22-.48-.49-.48s-.49.21-.49.48c0,.84.7,1.53,1.56,1.53s1.56-.68,1.56-1.53v-9.22c0-.26-.22-.48-.49-.48h.02Z" style="fill: #0b1427;"/>
      <path d="M15.54,8.13c-1.42,0-2.58-1.15-2.58-2.56s1.16-2.56,2.58-2.56,2.58,1.15,2.58,2.56-1.16,2.56-2.58,2.56ZM15.54,3.73c-1.01,0-1.85.83-1.85,1.84s.83,1.84,1.85,1.84,1.85-.83,1.85-1.84-.83-1.84-1.85-1.84Z" style="fill: #0b1427;"/>
      <path d="M15.54,3.13c1.36,0,2.46,1.1,2.46,2.45s-1.11,2.45-2.46,2.45-2.46-1.1-2.46-2.45,1.11-2.45,2.46-2.45ZM15.54,7.53c1.08,0,1.96-.87,1.96-1.95s-.88-1.95-1.96-1.95-1.96.87-1.96,1.95.88,1.95,1.96,1.95ZM15.54,2.9c-1.49,0-2.7,1.2-2.7,2.68s1.21,2.68,2.7,2.68,2.7-1.2,2.7-2.68-1.21-2.68-2.7-2.68ZM15.54,7.3c-.95,0-1.73-.77-1.73-1.72s.78-1.72,1.73-1.72,1.73.77,1.73,1.72-.78,1.72-1.73,1.72Z" style="fill: #0b1427;"/>
      <path d="M14.52,24.39c-.89,0-1.61-.71-1.61-1.57v-7.88c0-.2.17-.36.37-.36s.37.16.37.36v7.88c0,.47.39.85.87.85.23,0,.46-.09.62-.25.17-.16.26-.38.26-.61v-5.16c0-.2.16-.36.37-.36s.37.16.37.36v5.16c0,.41-.16.81-.47,1.11-.31.3-.72.46-1.14.46h0Z" style="fill: #0b1427;"/>
      <path d="M13.27,14.7c.14,0,.25.11.25.25v7.88c0,.54.45.97.99.97.27,0,.51-.1.7-.28.19-.18.29-.43.29-.68v-5.16c0-.14.11-.25.25-.25s.25.11.25.25v5.16c0,.38-.16.75-.44,1.03-.28.28-.66.43-1.05.43-.83,0-1.49-.65-1.49-1.46v-7.88c0-.14.11-.25.25-.25ZM13.27,14.47c-.27,0-.49.21-.49.48v7.88c0,.93.78,1.69,1.73,1.69.46,0,.9-.18,1.22-.49.33-.32.5-.74.5-1.19v-5.16c0-.26-.22-.48-.49-.48s-.49.21-.49.48v5.16c0,.2-.08.38-.22.52-.14.14-.34.21-.53.21-.42,0-.75-.33-.75-.74v-7.88c0-.26-.22-.48-.49-.48h0Z" style="fill: #0b1427;"/>
      <path d="M12.23,18.18c-.38,0-.73-.15-1-.41-.27-.26-.42-.61-.42-.98v-2.93c0-.2.17-.36.37-.36s.37.16.37.36v2.93c0,.18.07.35.2.48.13.13.3.2.48.2.36,0,.67-.29.68-.66v-1.87c0-.2.16-.36.37-.36s.37.16.37.36v1.85c-.03.8-.67,1.4-1.41,1.4h0Z" style="fill: #0b1427;"/>
      <path d="M11.18,13.61c.14,0,.25.11.25.25v2.93c0,.21.09.41.24.56.15.15.35.24.56.24.42,0,.78-.35.79-.77v-1.88c0-.14.11-.25.25-.25s.25.11.25.25v1.9c-.03.68-.61,1.23-1.3,1.23-.35,0-.67-.14-.91-.38-.24-.24-.38-.56-.38-.9v-2.93c0-.14.11-.25.25-.25M11.18,13.38c-.27,0-.49.21-.49.48v2.93c0,.4.16.78.45,1.07.29.29.68.44,1.08.44.81,0,1.49-.65,1.53-1.45v-1.91c0-.26-.22-.48-.49-.48s-.49.21-.49.48v1.85c0,.32-.26.57-.56.57-.14,0-.28-.06-.39-.17-.11-.11-.16-.25-.16-.4v-2.93c0-.26-.22-.48-.49-.48Z" style="fill: #0b1427;"/>
      <path d="M19.29,18.18c-.75,0-1.38-.61-1.41-1.34v-1.71c0-.2.17-.36.36-.36s.37.16.37.36v1.66c.02.38.31.68.68.68.13,0,.26-.04.38-.11.06-.04.13-.06.2-.06.13,0,.24.06.31.15.06.08.08.18.06.27-.02.09-.07.18-.16.23-.24.16-.51.25-.79.25h0Z" style="fill: #0b1427;"/>
      <path d="M18.24,14.89c.14,0,.25.11.25.25v1.68c.02.42.37.77.79.77.16,0,.31-.05.44-.14.04-.03.09-.05.14-.05.08,0,.16.04.2.11.08.11.05.26-.06.34-.22.15-.46.22-.72.22-.68,0-1.27-.55-1.29-1.23v-1.7c0-.14.11-.25.25-.25M18.24,14.66c-.27,0-.49.21-.49.48v1.72c.03.79.72,1.44,1.52,1.44.31,0,.6-.09.86-.26.11-.07.18-.18.2-.31.02-.12,0-.25-.08-.35-.09-.13-.24-.21-.4-.21-.09,0-.2.03-.28.08-.09.06-.2.09-.31.09-.3,0-.55-.25-.56-.54v-1.67c0-.26-.21-.48-.48-.48Z" style="fill: #0b1427;"/>
      <path d="M19.88,10.74c-.12,0-.23-.05-.3-.15-.36-.49-.94-.77-1.58-.77h-4.5c-.49,0-.94.17-1.3.47-.06.06-.16.09-.24.09-.1,0-.2-.05-.27-.12-.06-.07-.09-.16-.09-.26,0-.09.05-.18.13-.25.49-.41,1.12-.64,1.78-.64h4.5c.88,0,1.67.39,2.17,1.07.06.08.08.18.06.27-.02.09-.07.18-.15.23-.06.05-.13.07-.21.07h0Z" style="fill: #0b1427;"/>
      <path d="M18.01,9.22c.84,0,1.6.37,2.07,1.01.08.11.06.26-.06.34-.05.03-.09.05-.15.05-.08,0-.16-.04-.2-.1-.39-.52-1-.81-1.67-.81h-4.5c-.51,0-1.01.18-1.38.5-.05.04-.11.06-.16.06-.07,0-.14-.03-.19-.08-.09-.1-.08-.25.02-.34.46-.4,1.07-.62,1.71-.62h4.5M18.01,8.99h-4.5c-.69,0-1.35.24-1.86.67-.2.18-.22.48-.04.67.09.1.23.16.36.16.12,0,.24-.04.32-.11.33-.28.76-.44,1.22-.44h4.5c.61,0,1.14.26,1.49.72.09.12.24.19.39.19.1,0,.2-.03.28-.09.1-.08.17-.18.2-.31.02-.12,0-.25-.09-.35-.53-.71-1.35-1.11-2.26-1.11h0Z" style="fill: #0b1427;"/>
      <path d="M17,24.39c-.42,0-.83-.16-1.13-.46-.31-.3-.47-.7-.47-1.11,0-.2.17-.36.37-.36s.37.16.37.36c0,.23.09.44.26.61.17.16.39.25.61.25.48,0,.87-.38.87-.85v-7.69c0-.2.17-.36.37-.36s.37.16.37.36v7.69c0,.87-.72,1.57-1.61,1.57h0Z" style="fill: #0b1427;"/>
      <path d="M18.24,14.89c.14,0,.25.11.25.25v7.69c0,.8-.67,1.46-1.49,1.46-.39,0-.77-.15-1.05-.43-.28-.28-.44-.64-.44-1.03,0-.14.11-.25.25-.25s.25.11.25.25c0,.26.1.5.29.68.19.18.44.28.7.28.55,0,.99-.44.99-.97v-7.69c0-.14.11-.25.25-.25ZM18.24,14.66c-.27,0-.49.21-.49.48v7.69c0,.41-.34.74-.75.74-.2,0-.39-.08-.53-.21-.14-.14-.22-.33-.22-.52,0-.26-.22-.48-.49-.48s-.49.21-.49.48c0,.44.18.87.5,1.19.33.32.76.49,1.22.49.95,0,1.73-.76,1.73-1.69v-7.69c0-.26-.22-.48-.49-.48h0Z" style="fill: #0b1427;"/>
      <path d="M16.07,14.15c-.4,0-.8-.04-1.2-.1-1.82-.31-3.42-1.3-4.49-2.77-1.07-1.48-1.48-3.27-1.16-5.05.32-1.78,1.33-3.33,2.84-4.38,1.18-.8,2.55-1.23,3.98-1.23.4,0,.81.03,1.2.1,1.82.31,3.42,1.3,4.49,2.77,1.07,1.48,1.48,3.27,1.16,5.05-.31,1.78-1.33,3.33-2.85,4.38-1.18.8-2.55,1.23-3.98,1.23h0ZM16.05,1.34c-1.27,0-2.5.38-3.55,1.1-1.35.93-2.26,2.31-2.55,3.91-.28,1.59.09,3.2,1.04,4.52.95,1.32,2.37,2.2,4.01,2.48.35.06.72.09,1.08.09,1.27,0,2.5-.38,3.55-1.1,1.35-.93,2.26-2.31,2.55-3.91.28-1.59-.09-3.2-1.04-4.52-.95-1.32-2.37-2.2-4.01-2.48-.35-.06-.72-.09-1.08-.09Z" style="fill: #0b1427;"/>
      <path d="M16.05.73c.39,0,.79.03,1.19.1,1.79.31,3.36,1.27,4.41,2.73,1.05,1.46,1.45,3.22,1.14,4.97-.31,1.75-1.3,3.28-2.8,4.3-1.16.8-2.52,1.21-3.91,1.21-.39,0-.79-.03-1.19-.1-1.79-.31-3.36-1.27-4.41-2.73-1.05-1.46-1.45-3.22-1.14-4.97.31-1.75,1.3-3.28,2.8-4.3,1.16-.8,2.51-1.21,3.91-1.21ZM16.07,13.55c1.29,0,2.55-.38,3.62-1.13,1.38-.95,2.3-2.36,2.59-3.99.29-1.63-.09-3.26-1.05-4.61-.97-1.35-2.42-2.25-4.09-2.53-.37-.06-.73-.09-1.1-.09-1.29,0-2.55.38-3.62,1.13-1.38.95-2.3,2.36-2.59,3.99-.29,1.63.09,3.26,1.05,4.61.97,1.35,2.42,2.25,4.09,2.53.37.06.73.09,1.1.09ZM16.05.5c-1.45,0-2.85.44-4.05,1.26-1.54,1.06-2.57,2.64-2.89,4.45-.32,1.81.09,3.63,1.18,5.14,1.08,1.5,2.7,2.51,4.56,2.82.41.07.82.11,1.23.11,1.45,0,2.84-.44,4.05-1.26,1.54-1.06,2.57-2.64,2.89-4.45.32-1.81-.09-3.63-1.18-5.14-1.08-1.5-2.7-2.51-4.56-2.82-.41-.07-.82-.11-1.23-.11ZM16.07,13.32c-.35,0-.71-.03-1.06-.09-1.6-.27-2.99-1.13-3.93-2.43-.94-1.3-1.3-2.87-1.01-4.43.28-1.56,1.16-2.92,2.49-3.83,1.03-.71,2.24-1.08,3.49-1.08.35,0,.71.03,1.06.09,1.6.27,2.99,1.13,3.93,2.43.94,1.3,1.3,2.87,1.01,4.43-.27,1.56-1.16,2.92-2.49,3.83-1.03.71-2.24,1.08-3.49,1.08Z" style="fill: #0b1427;"/>
      <path d="M23.06,18.9c-.44,0-.86-.21-1.11-.56l-1.97-2.74c-.2-.29-.28-.64-.23-.99.06-.35.26-.65.56-.86l.46-.32c.23-.16.5-.24.78-.24.44,0,.86.21,1.11.56l1.97,2.74c.2.29.29.64.23.99-.06.35-.26.65-.56.86l-.47.32c-.23.16-.5.24-.78.24h0ZM21.55,13.91c-.13,0-.25.04-.35.11l-.47.32c-.13.09-.23.23-.25.39-.03.16,0,.32.1.45l1.97,2.74c.12.16.31.25.51.25.13,0,.25-.04.35-.11l.47-.32c.13-.09.23-.23.25-.39.03-.16,0-.32-.1-.45l-1.97-2.74c-.09-.13-.24-.22-.4-.25-.03,0-.07,0-.11,0Z" style="fill: #0b1427;"/>
      <path d="M21.55,13.31c.39,0,.77.18,1.01.51l1.97,2.74c.19.26.26.58.2.9-.06.32-.24.6-.5.78l-.47.32c-.21.15-.46.22-.71.22-.39,0-.77-.18-1.01-.51l-1.97-2.74c-.19-.26-.26-.58-.2-.9.06-.32.24-.6.5-.78l.47-.32c.21-.15.46-.22.71-.22ZM23.06,18.29c.15,0,.29-.05.42-.13l.47-.32c.16-.11.27-.28.3-.47.03-.19,0-.38-.13-.54l-1.97-2.74c-.11-.15-.28-.26-.48-.29-.05,0-.09,0-.13,0-.15,0-.3.05-.42.13l-.47.32c-.16.11-.27.28-.3.47-.03.19,0,.38.13.54l1.97,2.74c.14.2.37.31.61.31M21.55,13.08c-.31,0-.6.09-.85.26l-.47.32c-.32.22-.53.55-.61.93-.07.38.02.76.24,1.07l1.97,2.74c.28.38.72.61,1.21.61.31,0,.6-.09.85-.26l.47-.32c.32-.22.53-.55.61-.93.07-.38-.02-.76-.24-1.07l-1.97-2.74c-.27-.38-.72-.61-1.21-.61ZM23.06,18.06c-.17,0-.31-.08-.41-.21l-1.97-2.74c-.08-.11-.1-.24-.09-.37.02-.13.09-.25.2-.31l.47-.32c.09-.06.18-.09.28-.09h.09c.13.02.25.09.32.2l1.97,2.74c.08.11.1.24.09.37-.02.13-.09.25-.2.31l-.47.32c-.09.06-.18.09-.29.09h0Z" style="fill: #0b1427;"/>
    </g>
  </g>
</svg>