<?xml version="1.0" encoding="UTF-8"?>
<svg id="Layer_1" data-name="Layer 1" xmlns="http://www.w3.org/2000/svg" viewBox="0 0 56 56">
  <path d="M42.74,48h-1.66c-.29,0-.53-.1-.73-.29-.2-.2-.29-.44-.29-.73s.1-.53.29-.73c.2-.19.44-.29.73-.29h1.84l2.85-27.76h-17.38c-.29,0-.53-.1-.73-.29-.2-.2-.29-.44-.29-.73s.1-.53.29-.73c.2-.19.44-.29.73-.29h8.14v-7.14c0-.29.1-.53.29-.73.2-.2.44-.29.73-.29s.53.1.73.29c.19.2.29.44.29.73v7.14h7.6c.49,0,.91.18,1.24.54.34.36.47.78.4,1.28l-2.89,28.17c-.08.56-.32,1.01-.73,1.35-.41.34-.9.51-1.46.51Z" style="fill: #f6f5f2;"/>
  <path d="M33.35,32.47c-.9-1.84-2.39-3.06-4.46-3.66-2.07-.59-4.2-.89-6.4-.89s-4.34.3-6.43.89c-2.1.59-3.57,1.81-4.43,3.66h21.72ZM22.49,25.88c1.15,0,2.41.1,3.79.31,1.38.21,2.7.56,3.96,1.06,1.26.5,2.37,1.18,3.33,2.02.96.84,1.6,1.92,1.92,3.23.13.51.03.97-.31,1.38-.33.41-.77.62-1.3.62H11.11c-.53,0-.96-.21-1.3-.62-.34-.41-.44-.88-.31-1.38.32-1.31.96-2.38,1.93-3.23.96-.84,2.07-1.52,3.33-2.02,1.26-.5,2.58-.86,3.95-1.06,1.38-.21,2.64-.31,3.78-.31ZM10.02,41.25c-.29,0-.53-.1-.73-.29-.2-.2-.29-.44-.29-.73s.1-.53.29-.73c.2-.19.44-.29.73-.29h24.94c.29,0,.53.1.73.29.2.2.29.44.29.73s-.1.53-.29.73c-.2.19-.44.29-.73.29H10.02ZM10.02,48c-.29,0-.53-.1-.73-.29-.2-.2-.29-.44-.29-.73s.1-.53.29-.73c.2-.19.44-.29.73-.29h24.94c.29,0,.53.1.73.29.2.2.29.44.29.73s-.1.53-.29.73c-.2.19-.44.29-.73.29H10.02Z" style="fill: #d9f74f;"/>
</svg>