<?xml version="1.0" encoding="UTF-8"?>
<svg id="Layer_1" data-name="Layer 1" xmlns="http://www.w3.org/2000/svg" viewBox="0 0 123 132">
  <path d="M2.45,91.39c.94,0,1.7.76,1.7,1.7v14.32c0,1.32,1.08,2.39,2.41,2.39h14.37c.94,0,1.7.76,1.7,1.7,0,.94-.76,1.69-1.7,1.7h0s-14.37,0-14.37,0c-3.21,0-5.81-2.6-5.81-5.79v-14.32c0-.94.76-1.7,1.7-1.7Z" style="fill: #f6f5f2; stroke: #f6f5f2; stroke-width: .5px;"/>
  <path d="M116.43.75c3.21,0,5.81,2.6,5.81,5.79v14.3c0,.85-.63,1.56-1.45,1.68v.03h-.25c-.94,0-1.7-.76-1.7-1.7V6.54c0-1.32-1.08-2.4-2.4-2.4h-14.36c-.94,0-1.7-.76-1.7-1.7s.76-1.7,1.7-1.7h14.36Z" style="fill: #f6f5f2; stroke: #f6f5f2; stroke-width: .5px;"/>
  <path d="M120.54,91.39c.94,0,1.7.76,1.7,1.7v14.31c0,3.2-2.61,5.79-5.81,5.79h-14.36c-.94,0-1.7-.76-1.7-1.7s.76-1.7,1.7-1.7h14.36c1.33,0,2.4-1.08,2.4-2.4v-14.31c0-.94.76-1.7,1.7-1.7Z" style="fill: #f6f5f2; stroke: #f6f5f2; stroke-width: .5px;"/>
  <path d="M20.93.75h.17c.86.1,1.53.82,1.53,1.7,0,.94-.76,1.7-1.7,1.7H6.56c-1.33,0-2.41,1.08-2.41,2.4v14.31c0,.85-.63,1.56-1.45,1.68v.03h-.25c-.94,0-1.7-.76-1.7-1.7V6.24C.91,3.19,3.46.75,6.56.75h14.37Z" style="fill: #f6f5f2; stroke: #f6f5f2; stroke-width: .5px;"/>
  <path d="M36.92,50.04c.42-.69,1.27-.98,2.03-.71l.16.07h0s.83.41.83.41c17.46,8.87,28.98,31.29,28.83,56.14v.59c-.04,2.49-.27,12.5-1.94,22.24l-.19,1.08c-.13.69-.65,1.2-1.29,1.35l.03.05h-.41c-.1,0-.21-.01-.3-.03h0c-.92-.17-1.54-1.05-1.37-1.98l.19-1.05c1.86-10.88,1.88-22.14,1.88-22.26h0s0-1.11,0-1.11c-.22-22.86-11.19-43.96-26.97-51.99l-.77-.38c-.85-.4-1.21-1.42-.8-2.26l.08-.15Z" style="fill: #d9f74f; stroke: #d9f74f; stroke-width: .5px;"/>
  <path d="M11.54,22.64c19.3-3.49,35.58.16,45.81,10.36l.69.71c6.8,7.19,9.82,16.7,8.35,26.37l-.16.97c-.77,4.25-2.38,8.31-4.78,12.1l-.49.75c-.52.78-1.58.99-2.36.47h0c-.78-.52-1-1.58-.47-2.35,2.42-3.62,4.02-7.51,4.75-11.58h0l.14-.86c1.31-8.63-1.38-17.11-7.46-23.54l-.62-.64c-5.33-5.31-17.77-13.57-41.5-9.64-.36,6.8.81,15.04,3.43,22.82,2.64,7.86,6.74,15.25,12.18,20.25l.56.5c5.77,5.05,12.43,6.98,19.83,5.74h0l.17-.02c.85-.05,1.64.55,1.79,1.41l.02.17c.05.8-.47,1.53-1.25,1.74l-.17.04c-1.65.28-3.27.41-4.85.41h0s0,0,0,0h0c-6.79,0-12.97-2.52-18.39-7.5h0c-6-5.51-10.46-13.67-13.26-22.26-2.8-8.59-3.96-17.62-3.34-24.9l.02-.14c.11-.65.59-1.18,1.23-1.35l.14-.03Z" style="fill: #d9f74f; stroke: #d9f74f; stroke-width: .5px;"/>
  <path d="M110.19,41.41h.15c.75.06,1.4.57,1.57,1.33l.12.57c.6,2.93,1.12,7.32.94,11.85-.19,4.67-1.12,9.53-3.52,13.08l-.24.34c-2.12,2.95-5.08,4.65-8.75,5.04h0c-.87.09-1.67-.49-1.85-1.34l-.03-.17c-.1-.93.58-1.77,1.51-1.87l.5-.06c2.47-.38,4.39-1.55,5.84-3.58l.19-.28c1.94-2.88,2.73-6.95,2.91-10.96.18-4.01-.25-7.93-.69-10.48-10.38.74-15.05,4.92-17.17,8.47l-.2.34c-2.35,4.22-2.29,9.69.15,13.94l.06.11c.25.51.22,1.11-.07,1.6l-.07.1c-.26.37-3.39,4.81-8.27,9.16-4.88,4.35-11.55,8.64-18.88,8.64h0c-.94,0-1.7-.76-1.7-1.7,0-.94.76-1.7,1.7-1.7h0c5.6,0,10.96-3.11,15.23-6.64,4.16-3.44,7.26-7.25,8.51-8.89-2.49-5.1-2.38-11.37.35-16.28l.25-.43c2.68-4.51,8.57-9.72,21.42-10.21h0Z" style="fill: #d9f74f; stroke: #d9f74f; stroke-width: .5px;"/>
</svg>