<?xml version="1.0" encoding="UTF-8"?>
<svg id="Layer_1" data-name="Layer 1" xmlns="http://www.w3.org/2000/svg" xmlns:xlink="http://www.w3.org/1999/xlink" viewBox="0 0 23 25">
  <defs>
    <clipPath id="clippath">
      <rect y=".5" width="23" height="24" style="fill: none;"/>
    </clipPath>
  </defs>
  <g style="clip-path: url(#clippath);">
    <g>
      <path d="M.51,24.38c-.21,0-.39-.17-.39-.38v-14.91c0-.21.17-.38.39-.38h4.32c.21,0,.39.17.39.38s-.17.38-.39.38H.9v14.15h21.21v-14.15h-3.94c-.21,0-.39-.17-.39-.38s.17-.38.39-.38h4.32c.21,0,.39.17.39.38v14.91c0,.21-.17.38-.39.38H.51Z" style="fill: #0b1427;"/>
      <path d="M22.49,8.83c.15,0,.26.11.26.26v14.91c0,.15-.12.26-.26.26H.51c-.15,0-.26-.11-.26-.26v-14.91c0-.15.12-.26.26-.26h4.32c.15,0,.26.11.26.26s-.12.26-.26.26H.77v14.4h21.46v-14.4h-4.06c-.15,0-.26-.11-.26-.26s.12-.26.26-.26h4.32ZM22.49,8.59h-4.32c-.28,0-.51.23-.51.5s.23.5.51.5h3.81v13.91H1.02v-13.91h3.8c.28,0,.51-.23.51-.5s-.23-.5-.51-.5H.51c-.28,0-.51.23-.51.5v14.91c0,.28.23.5.51.5h21.99c.28,0,.51-.23.51-.5v-14.91c0-.28-.23-.5-.51-.5h0Z" style="fill: #0b1427;"/>
      <path d="M8.94,22.66c-.21,0-.38-.16-.39-.36-.06-1.54-1.19-2.78-2.64-2.9-1.39-.08-2.08-.7-2.25-2-.16-.91-.75-1.61-1.52-1.81-.21-.05-.33-.26-.28-.46.04-.17.2-.28.37-.28h.1c1.05.28,1.86,1.2,2.08,2.38.13,1.02.51,1.37,1.52,1.42h.08c1.8.15,3.24,1.71,3.31,3.63,0,.1-.03.19-.1.28-.07.07-.16.11-.27.12h0Z" style="fill: #0b1427;"/>
      <path d="M2.25,14.97h.07c1,.25,1.78,1.14,1.98,2.27,0,.02,0,.03,0,.04.12,1.04.55,1.42,1.62,1.48h.05c1.76.14,3.15,1.65,3.22,3.5,0,.15-.11.26-.26.27t0,0c-.14,0-.26-.11-.26-.25-.06-1.61-1.24-2.9-2.75-3.01h-.04c-1.31-.07-1.94-.64-2.09-1.89v-.02c-.16-.94-.79-1.69-1.61-1.89-.14-.03-.22-.18-.19-.32.03-.11.14-.19.26-.19M2.25,14.73c-.23,0-.44.15-.49.37-.03.13-.02.27.06.38.07.11.18.19.31.23.72.18,1.28.84,1.42,1.7.18,1.39.9,2.04,2.33,2.12,1.42.11,2.5,1.31,2.56,2.78,0,.27.23.48.51.48.16,0,.28-.06.37-.16s.14-.23.13-.36c-.07-1.98-1.56-3.59-3.44-3.74h-.07c-.94-.05-1.27-.34-1.38-1.26,0-.03,0-.06-.02-.09-.21-1.19-1.06-2.16-2.16-2.43-.04,0-.08-.02-.12-.02h-.02Z" style="fill: #0b1427;"/>
      <path d="M19.66,22.66c-.16,0-.3-.1-.35-.24-.59-1.46-1.39-2.25-2.26-2.25-.98.04-1.92.98-2.3,2.22-.05.16-.2.27-.37.27h-.02l-.09-.02c-.1-.03-.18-.1-.23-.19-.05-.09-.06-.19-.03-.29.48-1.57,1.69-2.71,2.94-2.77h.1c.69,0,2.01.35,2.97,2.73.07.19-.02.41-.21.49-.04.02-.09.02-.14.02h0Z" style="fill: #0b1427;"/>
      <path d="M17.04,19.53c.7,0,1.94.37,2.86,2.66.06.13,0,.28-.15.33-.03.02-.07.02-.1.02-.11,0-.21-.06-.24-.16-.61-1.51-1.44-2.34-2.37-2.34h-.07c-.96.04-1.95,1.01-2.35,2.31-.03.11-.14.19-.25.19-.02,0-.05,0-.07,0-.14-.04-.21-.19-.17-.32.46-1.52,1.62-2.63,2.82-2.68h.09M17.04,19.28h-.1c-1.3.06-2.55,1.23-3.05,2.85-.04.13-.02.26.04.38.07.12.17.2.3.24.05.02.1.02.15.02.22,0,.42-.15.49-.36.36-1.2,1.26-2.1,2.12-2.14h.06c.81,0,1.57.77,2.14,2.18.07.19.26.32.47.32.07,0,.13,0,.19-.03.12-.05.22-.15.28-.27.05-.12.06-.26,0-.38-.99-2.45-2.36-2.81-3.09-2.81h0Z" style="fill: #0b1427;"/>
      <path d="M14.58,14.92c-.21,0-.38-.16-.39-.36,0-.1.03-.19.1-.28.07-.07.16-.12.26-.12.73-.03,1.46-.5,1.98-1.3.34-.5.6-.97.82-1.34.19-.33.36-.64.55-.93.07-.11.19-.17.32-.17.07,0,.15.02.21.06.08.06.15.14.16.24.02.1,0,.2-.06.28-.17.27-.35.56-.52.87-.24.43-.5.88-.86,1.41-.67,1-1.61,1.59-2.59,1.63h-.02.02Z" style="fill: #0b1427;"/>
      <path d="M18.25,10.55s.1.02.14.04c.12.08.16.24.07.36-.18.28-.35.58-.54.89-.23.41-.49.87-.84,1.38-.65.97-1.56,1.54-2.5,1.58h0c-.14,0-.26-.11-.26-.24,0-.15.11-.26.25-.27.77-.03,1.53-.53,2.08-1.35.34-.49.59-.95.82-1.35.19-.32.36-.63.55-.92.05-.07.13-.11.22-.11M18.25,10.31c-.17,0-.33.08-.43.23-.2.3-.37.61-.56.94-.22.4-.48.84-.81,1.33-.51.75-1.2,1.21-1.89,1.24-.13,0-.26.06-.35.16-.09.1-.14.23-.13.36,0,.27.24.48.51.48,1.05-.05,2.03-.67,2.72-1.69.35-.52.62-.99.85-1.4.18-.32.35-.62.53-.88.16-.24.09-.54-.15-.69-.08-.06-.18-.08-.28-.08h0Z" style="fill: #0b1427;"/>
      <path d="M11.5,14.98c-1.55,0-5.9-5.4-5.9-8.55S8.25.62,11.5.62s5.9,2.6,5.9,5.81-4.35,8.55-5.9,8.55ZM11.5,1.38c-2.82,0-5.12,2.26-5.12,5.04,0,2.98,4.21,7.79,5.12,7.79s5.12-4.8,5.12-7.79c0-2.78-2.3-5.04-5.12-5.04Z" style="fill: #0b1427;"/>
      <path d="M11.5.74c3.18,0,5.77,2.55,5.77,5.69s-4.26,8.43-5.77,8.43-5.77-5.32-5.77-8.43S8.32.74,11.5.74ZM11.5,14.34c1.12,0,5.25-4.95,5.25-7.92S14.39,1.26,11.5,1.26s-5.25,2.32-5.25,5.17,4.13,7.92,5.25,7.92M11.5.5c-3.32,0-6.02,2.66-6.02,5.93,0,3.07,4.22,8.67,6.02,8.67s6.02-5.6,6.02-8.67c0-3.27-2.7-5.93-6.02-5.93ZM11.5,14.09c-.89,0-5-4.73-5-7.67,0-2.72,2.24-4.92,5-4.92s5,2.21,5,4.92c0,2.94-4.11,7.67-5,7.67Z" style="fill: #0b1427;"/>
      <path d="M11.5,9.47c-1.7,0-3.09-1.36-3.09-3.04s1.38-3.04,3.09-3.04,3.09,1.36,3.09,3.04-1.38,3.04-3.09,3.04ZM11.5,4.14c-1.28,0-2.31,1.02-2.31,2.28s1.04,2.28,2.31,2.28,2.31-1.02,2.31-2.28-1.04-2.28-2.31-2.28Z" style="fill: #0b1427;"/>
      <path d="M11.5,3.51c1.63,0,2.96,1.31,2.96,2.92s-1.33,2.92-2.96,2.92-2.96-1.31-2.96-2.92,1.33-2.92,2.96-2.92ZM11.5,8.83c1.34,0,2.44-1.08,2.44-2.4s-1.1-2.4-2.44-2.4-2.44,1.08-2.44,2.4,1.1,2.4,2.44,2.4ZM11.5,3.27c-1.77,0-3.21,1.42-3.21,3.16s1.44,3.16,3.21,3.16,3.21-1.42,3.21-3.16-1.44-3.16-3.21-3.16ZM11.5,8.59c-1.21,0-2.19-.97-2.19-2.16s.99-2.16,2.19-2.16,2.19.97,2.19,2.16-.99,2.16-2.19,2.16Z" style="fill: #0b1427;"/>
    </g>
  </g>
</svg>