<?xml version="1.0" encoding="UTF-8"?>
<svg id="Layer_1" data-name="Layer 1" xmlns="http://www.w3.org/2000/svg" viewBox="0 0 135 132">
  <path d="M85.41,10.94c2.4-7.53,10.41-11.82,18.04-9.61l.35.11c3.6,1.14,6.57,3.58,8.39,6.91l.17.32c1.73,3.35,2.11,7.18,1.05,10.82-1.06,3.64-3.43,6.67-6.69,8.56l-.32.18c-2.19,1.2-4.59,1.81-7.02,1.81h0s0,0,0,0h0c-1.2,0-2.41-.15-3.6-.45l-.51-.14c-7.75-2.26-12.22-10.4-9.97-18.15l.11-.36ZM102.57,4.36c-6.08-1.77-12.48,1.73-14.25,7.82h0c-1.77,6.09,1.74,12.48,7.83,14.26l.55.15c2.78.66,5.67.28,8.19-1.11,2.69-1.48,4.64-3.92,5.5-6.86l.15-.56c.62-2.6.32-5.29-.84-7.68l-.26-.51c-1.39-2.52-3.61-4.4-6.32-5.33l-.55-.17Z" style="fill: #262626; stroke: #000; stroke-width: .5px;"/>
  <path d="M118.95,25.42c2.46-1.35,5.31-1.66,8.01-.88l.5.16c2.47.85,4.52,2.57,5.79,4.88,1.27,2.31,1.62,4.95,1.01,7.5l-.13.51c-1.33,4.56-5.49,7.54-10.01,7.58h0s-.1,0-.1,0c-.97,0-1.96-.14-2.94-.42h0c-2.53-.74-4.65-2.36-6.02-4.59l-.26-.45c-1.35-2.46-1.67-5.31-.88-8.01l.16-.5c.85-2.47,2.57-4.52,4.88-5.79ZM126.08,27.57c-1.89-.55-3.89-.33-5.62.62h0c-1.73.95-2.99,2.52-3.54,4.41h0c-.52,1.77-.36,3.64.45,5.29l.17.33.19.32c.96,1.57,2.45,2.7,4.23,3.22l.37.1c3.8.9,7.69-1.33,8.79-5.12l.1-.36c.43-1.79.18-3.64-.71-5.26h0c-.95-1.73-2.51-2.99-4.41-3.54h0Z" style="fill: #262626; stroke: #000; stroke-width: .5px;"/>
  <path d="M58.27,14.95c1.83-5.25,7.49-8.22,12.89-6.65l.5.16c2.47.85,4.52,2.58,5.79,4.88,1.35,2.46,1.67,5.31.88,8.01-.79,2.7-2.58,4.93-5.04,6.29h0c-1.57.86-3.3,1.3-5.05,1.3h-.25c-.91-.03-1.81-.17-2.71-.43h0c-2.7-.79-4.93-2.58-6.29-5.04-1.35-2.46-1.67-5.31-.88-8.01l.17-.52ZM68.32,11.02h-.1c-3.1,0-5.97,1.97-7,5.02l-.09.3c-.55,1.89-.33,3.89.62,5.62h0l.18.32c.96,1.57,2.45,2.7,4.23,3.21h0l.36.09c1.79.43,3.64.18,5.26-.71l.32-.19c1.57-.96,2.7-2.45,3.22-4.22.52-1.77.36-3.64-.45-5.29l-.17-.33c-.95-1.73-2.51-2.99-4.41-3.54h0c-.65-.19-1.31-.29-1.96-.29h0Z" style="fill: #262626; stroke: #000; stroke-width: .5px;"/>
  <path d="M69.17,39.15c5.99-1.58,13.82-1.13,22.84,1.49h0l.84.25c8.61,2.62,15.16,6.35,19.23,10.75,4.08,4.41,5.67,9.51,4.31,14.84l-.14.52c-2.59,8.88-12.04,14.31-23.52,14.48h-.55c-2.91,0-5.95-.33-9.04-1.03h0c-.85-.19-1.38-1.03-1.19-1.88.18-.8.93-1.31,1.72-1.21l.16.03.65.14c6.66,1.39,13.08.89,18.21-1.09,5.29-2.04,9.18-5.63,10.54-10.32l.09-.33c.9-3.47.2-7.51-3.02-11.39-3.23-3.89-9-7.63-18.26-10.46l-.91-.27c-9.79-2.85-16.96-2.84-21.93-1.24-4.96,1.6-7.74,4.78-8.77,8.33-.33,1.13-.5,2.3-.53,3.48-.02.87-.73,1.54-1.6,1.54h0c-.87-.02-1.56-.73-1.54-1.6h0s.02-.55.02-.55c.07-1.27.28-2.53.63-3.75h0s.16-.51.16-.51c1.71-5.22,5.79-8.68,11.6-10.21Z" style="fill: #262626; stroke: #000; stroke-width: .5px;"/>
  <path d="M32.47,51.01c7.64-2.01,15.56,2.44,17.79,10.07l.1.36c1.98,7.52-2.3,15.31-9.71,17.68l-.36.11c-1.36.4-2.74.58-4.09.58-6.15,0-11.84-3.9-13.88-9.96l-.19-.59c-2.25-7.75,2.21-15.89,9.97-18.15l.36-.1ZM36.2,53.67c-.93,0-1.87.11-2.81.35l-.4.11c-6.09,1.77-9.6,8.17-7.82,14.25,1.77,6.09,8.17,9.6,14.25,7.82,5.99-1.74,9.49-7.97,7.9-13.97l-.08-.29c-1.46-5.02-6.06-8.29-11.05-8.29Z" style="fill: #262626; stroke: #000; stroke-width: .5px;"/>
  <path d="M9.13,74.18c5.24-1.24,10.6,1.7,12.37,6.79l.17.52.13.51c.61,2.55.25,5.19-1.01,7.5h0c-1.27,2.31-3.31,4.03-5.79,4.88l-.5.16c-.98.28-1.97.42-2.94.42h0c-4.42,0-8.51-2.81-9.98-7.16l-.13-.43c-.79-2.7-.47-5.54.88-8.01l.26-.45c1.37-2.23,3.49-3.85,6.02-4.59l.52-.14ZM11.54,77.04c-.6,0-1.2.07-1.8.23l-.26.07c-1.89.55-3.46,1.81-4.41,3.54h0c-.95,1.73-1.17,3.73-.62,5.62l.12.36c1.24,3.57,5,5.63,8.67,4.76l.37-.1c1.77-.52,3.26-1.65,4.23-3.22l.19-.32c.89-1.62,1.14-3.48.71-5.26l-.09-.36c-.94-3.22-3.89-5.32-7.09-5.32h0Z" style="fill: #262626; stroke: #000; stroke-width: .5px;"/>
  <path d="M64.41,58.07c5.57-1.62,11.43,1.59,13.06,7.17,1.57,5.4-1.4,11.06-6.65,12.89l-.52.17c-.98.28-1.97.42-2.94.42h0c-4.56,0-8.78-2.99-10.11-7.59l-.14-.52c-1.28-5.41,1.9-10.96,7.3-12.53ZM74.44,66.11c-1.1-3.79-4.99-6.02-8.79-5.12l-.37.1c-3.91,1.14-6.17,5.25-5.03,9.16l.12.36c1.24,3.57,5,5.63,8.67,4.76l.37-.1c3.91-1.14,6.17-5.25,5.03-9.16Z" style="fill: #262626; stroke: #000; stroke-width: .5px;"/>
  <path d="M43.56,90.43c8.21-2.39,15.7-3.01,21.66-1.75l.63.14c6.41,1.52,10.67,5.25,12.3,10.83l.15.55c1.4,5.49-.06,11.39-4.1,16.75l-.41.53c-4.24,5.37-10.66,9.57-18.1,11.88l-.72.22c-3.79,1.1-7.62,1.66-11.33,1.67h0s-.1,0-.1,0c-3.61,0-7.09-.52-10.3-1.55l-.64-.22c-6.62-2.31-11.26-6.61-13.09-12.17l-.17-.54c-1.68-5.76.08-11.37,5.01-16.19l.42-.4c4.36-4.08,10.85-7.44,18.8-9.76ZM58.56,91.19c-3.96.01-8.4.68-13.16,1.99l-.96.27c-7.75,2.26-13.93,5.51-17.9,9.38h0c-4.15,4.06-5.54,8.45-4.19,13.07l.14.45c1.51,4.57,5.43,8.18,11.13,10.17h0c6.05,2.1,13.32,2.13,20.47.05,7.15-2.08,13.27-6,17.24-11.03l.36-.46c3.48-4.61,4.72-9.58,3.58-14.1l-.12-.45c-1.3-4.47-4.65-7.39-10.03-8.65l-.53-.12c-1.81-.38-3.79-.57-5.91-.57h-.11Z" style="fill: #262626; stroke: #000; stroke-width: .5px;"/>
</svg>