<?xml version="1.0" encoding="UTF-8"?>
<svg id="Layer_1" data-name="Layer 1" xmlns="http://www.w3.org/2000/svg" viewBox="0 0 76 66">
  <path d="M63.11,44.24c.16-.44.64-.7,1.1-.58h0l.09.03c.44.16.7.64.58,1.1h0c-2,7.77-7.25,14.21-14.47,17.8l-.71.34c-3.65,1.69-7.54,2.55-11.42,2.59h0s-.25,0-.25,0c-3.8,0-7.59-.79-11.13-2.38l-.7-.33c-2.18-1.05-4.19-2.38-5.99-3.96l-.36-.32c-.38-.35-.41-.93-.07-1.31h0l.07-.07c.35-.32.89-.32,1.24,0l.33.3c1.67,1.46,3.54,2.7,5.57,3.68l.65.3c6.74,3.02,14.45,2.96,21.27-.2l.66-.32c6.74-3.35,11.63-9.36,13.5-16.6l.03-.09Z" style="fill: #0b1427; stroke: #0b1427; stroke-width: .5px;"/>
  <path d="M27.79,13.97c10.83-4.76,23.27-2.23,31.11,6.4l.33.38c1.65,1.89,3.03,4.02,4.09,6.32l.19.43c.45,1.01.83,2.05,1.13,3.09l.02.09c.09.46-.19.93-.65,1.06-.46.14-.94-.1-1.12-.54l-.03-.09c-.28-.96-.64-1.93-1.05-2.87l-.18-.4c-.99-2.14-2.26-4.11-3.8-5.87l-.31-.35c-7.29-8.03-18.88-10.39-28.99-5.95l-.48.22c-10.06,4.66-16,15.05-14.8,25.86l.06.49c.32,2.43,1.01,4.8,2.04,7.05l.2.42c.47.98,1.02,1.94,1.62,2.87h0c.28.43.16,1.01-.27,1.29h0c-.16.1-.33.15-.5.15h0c-.3,0-.6-.15-.78-.42h0c-.65-.99-1.24-2.03-1.74-3.08l-.21-.45c-1.11-2.42-1.85-4.97-2.2-7.58l-.06-.52c-1.29-11.61,5.08-22.76,15.86-27.75l.51-.23Z" style="fill: #0b1427; stroke: #0b1427; stroke-width: .5px;"/>
  <path d="M22.73,16.95c.46-.1.93.16,1.08.62l.12.35c.57,1.61,1.3,2.93,2.14,3.88l.18.2h0s.18.18.18.18c.84.83,1.72,1.23,2.56,1.23h.18c1.82-.14,2.84,1.11,3.72,2.19l.54.63c.54.61,1.13,1.14,1.93,1.4h0s.27.09.27.09c.6.18.96.22,1.25.19.32-.04.57-.18.99-.43l.31-.18c.78-.45,1.87-.98,3.95-1.25l.3-.03.5-.06c.57-.07,1.31-.19,2.05-.43.99-.31,1.91-.81,2.35-1.59l.08-.16c.38-.82.28-1.96-.4-3.44h0c-.21-.47,0-1.02.46-1.23l.09-.04c.42-.14.88.03,1.1.41l.04.08h0s.17.38.17.38c.73,1.77.82,3.34.21,4.64l-.14.27c-.71,1.25-1.98,1.96-3.2,2.38-.92.31-1.84.47-2.52.56l-.59.07-.27.03h0c-2,.26-2.86.77-3.55,1.19h0c-.66.39-1.24.7-2.1.7h-.25v-.02c-.4-.03-.85-.11-1.39-.27l-.29-.09c-1.4-.46-2.29-1.39-3.02-2.26l-.3-.37c-.44-.54-.78-.94-1.12-1.19-.32-.25-.64-.36-1.04-.33h0c-1.57.11-3.09-.6-4.4-1.98h0c-1.11-1.15-2.04-2.78-2.73-4.73l-.13-.39c-.16-.49.1-1.01.59-1.17h0l.09-.02Z" style="fill: #0b1427; stroke: #0b1427; stroke-width: .5px;"/>
  <path d="M63.83,17.73c5.45-.05,9.13,1.37,10.46,4.25,1.33,2.88.02,6.61-3.56,10.74l-.35.4c-2.08,2.33-4.83,4.75-8.16,7.18h0c-.16.12-.35.18-.54.18h0s0,0,0,0h0c-.28,0-.57-.13-.75-.38h0c-.3-.42-.21-1,.2-1.3h0l.6-.44c2.96-2.21,5.4-4.38,7.27-6.47h0s.61-.7.61-.7c1.36-1.62,2.31-3.14,2.83-4.5.6-1.55.65-2.88.17-3.92h0c-.48-1.05-1.52-1.87-3.09-2.41-1.57-.55-3.65-.81-6.18-.74h0c-.53.01-.94-.4-.95-.91h0c-.01-.51.39-.94.9-.96h.53Z" style="fill: #6444db; stroke: #6444db; stroke-width: .5px;"/>
  <path d="M56.25,42.1c.43-.27,1.01-.14,1.28.29l.05.08c.2.4.08.88-.26,1.15l-.08.05c-3.47,2.18-7.29,4.28-11.38,6.24l-1.77.83c-10.59,4.91-21.21,8.14-29.3,8.93l-.78.07c-1.02.08-1.98.12-2.89.12h-.4,0c-4.97-.08-8.3-1.4-9.51-4.03h0c-.73-1.59-.6-3.46.31-5.52.91-2.06,2.6-4.34,5.03-6.79l.07-.06c.36-.3.9-.28,1.24.06l.06.07c.28.34.28.83,0,1.18l-.06.07c-2.16,2.17-3.67,4.17-4.5,5.91-.83,1.75-.97,3.2-.46,4.3l.1.2c.56,1,1.71,1.77,3.46,2.23,1.86.49,4.36.64,7.41.4l.75-.07c7.87-.77,18.26-3.94,28.69-8.76l1.74-.82c4.02-1.94,7.78-4,11.19-6.14h0Z" style="fill: #6444db; stroke: #6444db; stroke-width: .5px;"/>
  <path d="M16.45,10.31c.51,0,.93.42.93.93v3.42c0,.51-.42.93-.93.93-.51,0-.93-.42-.93-.93v-3.42c0-.51.42-.93.93-.93Z" style="fill: #6444db; stroke: #6444db; stroke-width: .5px;"/>
  <path d="M16.45.75c.51,0,.93.42.93.93v3.42c0,.51-.42.93-.93.93-.51,0-.93-.42-.93-.93V1.68c0-.51.42-.93.93-.93Z" style="fill: #6444db; stroke: #6444db; stroke-width: .5px;"/>
  <path d="M22.92,7.24c.51,0,.93.42.93.93s-.42.93-.93.93h-3.42c-.51,0-.93-.42-.93-.93s.42-.93.93-.93h3.42Z" style="fill: #6444db; stroke: #6444db; stroke-width: .5px;"/>
  <path d="M13.4,7.24c.51,0,.93.42.93.93s-.42.93-.93.93h-3.42c-.51,0-.93-.42-.93-.93,0-.51.42-.93.93-.93h3.42Z" style="fill: #6444db; stroke: #6444db; stroke-width: .5px;"/>
</svg>