<?xml version="1.0" encoding="UTF-8"?>
<svg id="Layer_1" data-name="Layer 1" xmlns="http://www.w3.org/2000/svg" viewBox="0 0 75 62">
  <path d="M28.8,47.07c4.27,0,8.16,1.24,10.98,3.25,2.82,2.01,4.6,4.82,4.6,7.93,0,.83-.13,1.66-.38,2.46h0c-.12.4-.49.65-.89.65-.09,0-.18-.01-.28-.04h0c-.49-.15-.76-.68-.61-1.16l.07-.24c.15-.55.22-1.11.22-1.68,0-2.53-1.5-4.86-3.99-6.56-2.48-1.7-5.93-2.76-9.73-2.76-3.81,0-7.25,1.06-9.73,2.76-2.48,1.7-3.99,4.03-3.99,6.56,0,.64.1,1.29.29,1.91l.02.09c.09.46-.17.93-.63,1.07h0c-.49.15-1.01-.12-1.16-.61l-.09-.3c-.19-.71-.29-1.44-.29-2.16,0-3.12,1.78-5.92,4.6-7.93,2.82-2.01,6.71-3.25,10.98-3.25Z" style="fill: #f6f5f2; stroke: #f6f5f2; stroke-width: .5px;"/>
  <path d="M28.8,28.65c4.27,0,7.74,3.48,7.75,7.77,0,4.28-3.47,7.77-7.75,7.77-4.27,0-7.75-3.49-7.75-7.77,0-4.28,3.47-7.77,7.75-7.77ZM28.8,30.51c-3.25,0-5.89,2.65-5.89,5.91,0,3.26,2.64,5.91,5.89,5.91,3.25,0,5.89-2.65,5.89-5.91,0-3.26-2.64-5.91-5.89-5.91Z" style="fill: #f6f5f2; stroke: #f6f5f2; stroke-width: .5px;"/>
  <path d="M49.12,5.85c2.78,0,5.43,1.05,7.27,2.89l.06.07c.3.36.28.9-.06,1.25-.34.34-.88.36-1.24.07l-.07-.06c-1.49-1.49-3.67-2.35-5.96-2.35-4.37,0-7.86,3.05-7.86,6.72,0,.73.14,1.44.4,2.12l.03.08h0s.03.09.03.09c.11.45-.12.92-.56,1.09h0s-.03,0-.03.01h0s0,0,0,0h-.01c-2.75.91-4.57,3.29-4.57,5.93,0,2.9,2.19,5.43,5.28,6.12l.3.06.14.04c.3.1.54.36.61.68h0c.57,2.62,3.19,4.55,6.26,4.55,1.89,0,3.66-.74,4.88-2.01h0l.07-.07c.33-.29.83-.3,1.17-.03l.07.06h0s.07.07.07.07c.28.34.29.83.02,1.17l-.06.07c-1.57,1.64-3.84,2.58-6.22,2.58-3.68,0-6.91-2.23-7.92-5.42-3.8-.93-6.53-4.15-6.53-7.88,0-3.17,1.98-6.02,4.99-7.36-.17-.64-.26-1.3-.26-1.97,0-4.76,4.39-8.58,9.71-8.58Z" style="fill: #0b1427; stroke: #0b1427; stroke-width: .5px;"/>
  <path d="M69.8,14.36c.26-.44.83-.59,1.27-.34h0l.21.13c2.13,1.34,3.45,3.71,3.45,6.25,0,3.2-2.03,5.96-4.96,6.96.28.72.42,1.46.42,2.23,0,4.17-4.19,7.48-9.22,7.48h-.4,0c-.8-.04-1.58-.15-2.34-.34l-.38-.1c-.49-.14-.78-.66-.63-1.15.14-.49.66-.78,1.15-.63h0c.83.24,1.7.37,2.6.37,2.05,0,3.9-.64,5.23-1.67,1.33-1.03,2.13-2.43,2.13-3.95,0-.81-.23-1.6-.7-2.36h0c-.16-.26-.18-.59-.05-.87l.05-.1c.14-.23.37-.39.64-.43h0l.25-.05c2.53-.53,4.35-2.76,4.35-5.38,0-1.96-1.05-3.78-2.73-4.76h0c-.44-.26-.59-.83-.34-1.27Z" style="fill: #0b1427; stroke: #0b1427; stroke-width: .5px;"/>
  <path d="M59.78,3.42c4.68,0,8.53,3.51,8.53,7.86,0,1.08-.23,2.12-.69,3.1h0c-.16.34-.49.54-.84.54-.13,0-.26-.03-.39-.09h0c-.46-.22-.66-.77-.45-1.24l.12-.28c.26-.65.39-1.33.39-2.03,0-3.28-2.97-6-6.67-6-2.23,0-4.24.97-5.49,2.59l-.24.33c-.27.4-.79.53-1.21.3l-.08-.05h0c-.42-.29-.54-.86-.25-1.29h0s.15-.22.15-.22c1.59-2.22,4.23-3.53,7.12-3.53Z" style="fill: #0b1427; stroke: #0b1427; stroke-width: .5px;"/>
  <path d="M48.75,24.65c.45-.24,1.02-.06,1.25.4l.14.24c.72,1.17,1.99,1.89,3.38,1.89.28,0,.56-.03.84-.09h0s.09-.02.09-.02c.44-.05.85.22.99.64l.02.09h0s.01.09.01.09c.05.47-.26.91-.73,1.01h0c-.4.09-.81.13-1.23.13h0c-2.04,0-3.9-1.06-4.96-2.78l-.2-.35h0c-.24-.46-.06-1.02.4-1.26Z" style="fill: #0b1427; stroke: #0b1427; stroke-width: .5px;"/>
  <path d="M45.67,40.13c.33,0,.65.04.96.12.5.13.8.63.67,1.13-.12.47-.57.76-1.04.69l-.09-.02c-.16-.04-.33-.06-.51-.06-1.14,0-2.06.93-2.06,2.07,0,1.14.93,2.07,2.06,2.07.97,0,1.82-.69,2.02-1.65l.02-.09c.14-.45.6-.73,1.07-.63.47.1.79.54.74,1v.09c-.39,1.82-2,3.14-3.85,3.14-2.16,0-3.92-1.76-3.92-3.93,0-2.17,1.76-3.93,3.92-3.93Z" style="fill: #0b1427; stroke: #0b1427; stroke-width: .5px;"/>
  <path d="M7.53,30.97c.14-.45.6-.73,1.07-.63l.09.02c.45.14.73.6.63,1.07h0c-.07.36-.11.71-.11,1.05,0,3.32,3.15,6.09,7.1,6.09.46,0,.92-.04,1.38-.11h.09c.47-.04.9.29.97.77.08.48-.22.93-.67,1.05l-.09.02c-.56.09-1.12.14-1.68.14-4.91,0-8.96-3.54-8.96-7.95,0-.47.05-.95.14-1.42l.02-.09Z" style="fill: #f6f5f2; stroke: #f6f5f2; stroke-width: .5px;"/>
  <path d="M27.77,1.22c4.46,0,8.74,1.76,11.73,4.83l.06.07c.29.37.27.91-.08,1.25h0c-.18.18-.41.26-.65.26-.21,0-.42-.07-.59-.21l-.07-.07c-2.64-2.71-6.43-4.27-10.4-4.27-1.07,0-2.13.11-3.17.33l-.44.1c-.5.12-1-.18-1.12-.68-.12-.5.18-1,.68-1.12l.5-.11c1.16-.25,2.35-.37,3.56-.37Z" style="fill: #f6f5f2; stroke: #f6f5f2; stroke-width: .5px;"/>
  <path d="M16.32,2.46c1.22,0,2.41.23,3.53.7l.48.21.08.04c.4.25.56.76.36,1.2-.22.46-.77.66-1.24.44h0c-1.02-.48-2.1-.73-3.22-.73-1.8,0-3.54.64-4.9,1.81h0s-.08.06-.13.09l.13.13h-.6c-.26,0-.52-.11-.71-.33h0c-.33-.39-.28-.98.1-1.31h0s.32-.27.32-.27c1.65-1.29,3.69-1.99,5.78-1.99Z" style="fill: #f6f5f2; stroke: #f6f5f2; stroke-width: .5px;"/>
  <path d="M7.43,8.78c.19-.43.69-.65,1.14-.49h0c.49.16.74.69.58,1.18h0c-.27.78-.4,1.61-.4,2.45,0,.93.18,1.86.53,2.76l.03.1c.06.23.03.48-.08.69h0c-.13.24-.37.41-.63.46h0c-3.43.67-5.92,3.7-5.92,7.21,0,3.51,2.49,6.54,5.91,7.21l.35.06c.35.05.71.08,1.06.08.51,0,.93.42.93.93,0,.51-.41.93-.93.93h0s0,0,0,0h0c-.59,0-1.18-.06-1.76-.17h0c-4.3-.84-7.41-4.64-7.41-9.04,0-4.04,2.64-7.58,6.41-8.77-.22-.8-.33-1.62-.33-2.45,0-1.04.17-2.07.5-3.04l.04-.09Z" style="fill: #f6f5f2; stroke: #f6f5f2; stroke-width: .5px;"/>
</svg>