<?xml version="1.0" encoding="UTF-8"?>
<svg id="Layer_1" data-name="Layer 1" xmlns="http://www.w3.org/2000/svg" viewBox="0 0 56 56">
  <path d="M28.13,50.25c-3.06,0-5.94-.58-8.63-1.74-2.69-1.16-5.04-2.74-7.03-4.73-1.99-1.99-3.57-4.33-4.73-7.02-1.16-2.69-1.74-5.57-1.74-8.63s.58-5.94,1.74-8.63c1.16-2.69,2.74-5.04,4.73-7.03,1.99-1.99,4.33-3.57,7.02-4.73,2.69-1.16,5.57-1.74,8.63-1.74s5.94.58,8.63,1.74c2.69,1.16,5.04,2.74,7.03,4.73,1.99,1.99,3.57,4.33,4.73,7.02,1.16,2.69,1.74,5.57,1.74,8.63s-.58,5.94-1.74,8.63c-1.16,2.69-2.74,5.04-4.73,7.03-1.99,1.99-4.33,3.57-7.02,4.73-2.69,1.16-5.57,1.74-8.63,1.74ZM28.12,47.79c5.45,0,10.09-1.92,13.92-5.75,3.83-3.83,5.75-8.47,5.75-13.92s-1.92-10.09-5.75-13.92c-3.83-3.83-8.47-5.75-13.92-5.75s-10.09,1.92-13.92,5.75-5.75,8.47-5.75,13.92,1.92,10.09,5.75,13.92c3.83,3.83,8.47,5.75,13.92,5.75Z" style="fill: #f6f5f2;"/>
  <path d="M29.35,17.06v10.55l8.6,8.6c.26.26.39.55.39.87s-.13.61-.39.87c-.26.26-.56.38-.89.37-.33-.02-.62-.14-.85-.37l-8.73-8.73c-.21-.21-.37-.44-.46-.67-.09-.24-.14-.48-.14-.73v-10.76c0-.35.12-.64.35-.88.23-.24.53-.35.88-.35s.64.12.88.35c.24.24.35.53.35.88Z" style="fill: #d9f74f;"/>
</svg>